<mxfile host="www.draw.io" modified="2020-01-06T05:19:01.477Z" agent="Mozilla/5.0 (Windows NT 6.1; Win64; x64) AppleWebKit/537.36 (KHTML, like Gecko) Chrome/76.0.3809.87 Safari/537.36" etag="oojDR3ZiD4hCqRAvIkFe" version="12.4.8" type="github">
  <diagram id="uRZ5LNkj6qnoNEVaQnLW" name="第 1 页">
    <mxGraphModel dx="906" dy="530" grid="1" gridSize="10" guides="1" tooltips="1" connect="1" arrows="1" fold="1" page="1" pageScale="1" pageWidth="827" pageHeight="1169" math="0" shadow="0">
      <root>
        <mxCell id="0"/>
        <mxCell id="1" parent="0"/>
        <mxCell id="jF-yR4b1AywF_RMoqf4l-69" value="" style="edgeStyle=orthogonalEdgeStyle;rounded=0;orthogonalLoop=1;jettySize=auto;html=1;entryX=0;entryY=0.5;entryDx=0;entryDy=0;exitX=1;exitY=0.5;exitDx=0;exitDy=0;" parent="1" source="jF-yR4b1AywF_RMoqf4l-43" target="jF-yR4b1AywF_RMoqf4l-48" edge="1">
          <mxGeometry relative="1" as="geometry">
            <Array as="points">
              <mxPoint x="190" y="498"/>
              <mxPoint x="190" y="89"/>
            </Array>
          </mxGeometry>
        </mxCell>
        <mxCell id="jF-yR4b1AywF_RMoqf4l-12" value="blade_tenant（机构）" style="swimlane;fontStyle=0;childLayout=stackLayout;horizontal=1;startSize=26;fillColor=#e0e0e0;horizontalStack=0;resizeParent=1;resizeParentMax=0;resizeLast=0;collapsible=1;marginBottom=0;swimlaneFillColor=#ffffff;align=center;fontSize=14;" parent="1" vertex="1">
          <mxGeometry y="430" width="160" height="106" as="geometry"/>
        </mxCell>
        <mxCell id="jF-yR4b1AywF_RMoqf4l-13" value="id" style="shape=partialRectangle;top=0;left=0;right=0;bottom=1;align=left;verticalAlign=middle;spacingLeft=34;spacingRight=4;overflow=hidden;rotatable=0;points=[[0,0.5],[1,0.5]];portConstraint=eastwest;dropTarget=0;fontStyle=5;fontSize=12;" parent="jF-yR4b1AywF_RMoqf4l-12" vertex="1">
          <mxGeometry y="26" width="160" height="30" as="geometry"/>
        </mxCell>
        <mxCell id="jF-yR4b1AywF_RMoqf4l-14" value="PK" style="shape=partialRectangle;top=0;left=0;bottom=0;fillColor=none;align=left;verticalAlign=middle;spacingLeft=4;spacingRight=4;overflow=hidden;rotatable=0;points=[];portConstraint=eastwest;part=1;fontSize=12;" parent="jF-yR4b1AywF_RMoqf4l-13" vertex="1" connectable="0">
          <mxGeometry width="30" height="30" as="geometry"/>
        </mxCell>
        <object label="tenant_id" id="jF-yR4b1AywF_RMoqf4l-43">
          <mxCell style="shape=partialRectangle;top=0;left=0;right=0;bottom=0;align=left;verticalAlign=top;fillColor=#60a917;spacingLeft=34;spacingRight=4;overflow=hidden;rotatable=0;points=[[0,0.5],[1,0.5]];portConstraint=eastwest;dropTarget=0;fontSize=12;strokeColor=#2D7600;fontColor=#ffffff;" parent="jF-yR4b1AywF_RMoqf4l-12" vertex="1">
            <mxGeometry y="56" width="160" height="24" as="geometry"/>
          </mxCell>
        </object>
        <mxCell id="jF-yR4b1AywF_RMoqf4l-44" value="FK" style="shape=partialRectangle;top=0;left=0;bottom=0;fillColor=none;align=left;verticalAlign=top;spacingLeft=4;spacingRight=4;overflow=hidden;rotatable=0;points=[];portConstraint=eastwest;part=1;fontSize=12;" parent="jF-yR4b1AywF_RMoqf4l-43" vertex="1" connectable="0">
          <mxGeometry width="30" height="24" as="geometry"/>
        </mxCell>
        <object label="tenant_name" id="jF-yR4b1AywF_RMoqf4l-15">
          <mxCell style="shape=partialRectangle;top=0;left=0;right=0;bottom=0;align=left;verticalAlign=top;fillColor=#ffe6cc;spacingLeft=34;spacingRight=4;overflow=hidden;rotatable=0;points=[[0,0.5],[1,0.5]];portConstraint=eastwest;dropTarget=0;fontSize=12;strokeColor=#d79b00;" parent="jF-yR4b1AywF_RMoqf4l-12" vertex="1">
            <mxGeometry y="80" width="160" height="26" as="geometry"/>
          </mxCell>
        </object>
        <mxCell id="jF-yR4b1AywF_RMoqf4l-16" value="" style="shape=partialRectangle;top=0;left=0;bottom=0;fillColor=none;align=left;verticalAlign=top;spacingLeft=4;spacingRight=4;overflow=hidden;rotatable=0;points=[];portConstraint=eastwest;part=1;fontSize=12;" parent="jF-yR4b1AywF_RMoqf4l-15" vertex="1" connectable="0">
          <mxGeometry width="30" height="26" as="geometry"/>
        </mxCell>
        <mxCell id="jF-yR4b1AywF_RMoqf4l-45" value="blade_role（角色）" style="swimlane;fontStyle=0;childLayout=stackLayout;horizontal=1;startSize=26;fillColor=#e0e0e0;horizontalStack=0;resizeParent=1;resizeParentMax=0;resizeLast=0;collapsible=1;marginBottom=0;swimlaneFillColor=#ffffff;align=center;fontSize=14;" parent="1" vertex="1">
          <mxGeometry x="220" y="20" width="160" height="108" as="geometry"/>
        </mxCell>
        <mxCell id="jF-yR4b1AywF_RMoqf4l-46" value="id" style="shape=partialRectangle;top=0;left=0;right=0;bottom=1;align=left;verticalAlign=middle;fillColor=#d5e8d4;spacingLeft=34;spacingRight=4;overflow=hidden;rotatable=0;points=[[0,0.5],[1,0.5]];portConstraint=eastwest;dropTarget=0;fontStyle=5;fontSize=12;strokeColor=#82b366;" parent="jF-yR4b1AywF_RMoqf4l-45" vertex="1">
          <mxGeometry y="26" width="160" height="30" as="geometry"/>
        </mxCell>
        <mxCell id="jF-yR4b1AywF_RMoqf4l-47" value="PK" style="shape=partialRectangle;top=0;left=0;bottom=0;fillColor=none;align=left;verticalAlign=middle;spacingLeft=4;spacingRight=4;overflow=hidden;rotatable=0;points=[];portConstraint=eastwest;part=1;fontSize=12;" parent="jF-yR4b1AywF_RMoqf4l-46" vertex="1" connectable="0">
          <mxGeometry width="30" height="30" as="geometry"/>
        </mxCell>
        <mxCell id="jF-yR4b1AywF_RMoqf4l-48" value="tenant_id" style="shape=partialRectangle;top=0;left=0;right=0;bottom=0;align=left;verticalAlign=top;fillColor=#60a917;spacingLeft=34;spacingRight=4;overflow=hidden;rotatable=0;points=[[0,0.5],[1,0.5]];portConstraint=eastwest;dropTarget=0;fontSize=12;strokeColor=#2D7600;fontColor=#ffffff;" parent="jF-yR4b1AywF_RMoqf4l-45" vertex="1">
          <mxGeometry y="56" width="160" height="26" as="geometry"/>
        </mxCell>
        <mxCell id="jF-yR4b1AywF_RMoqf4l-49" value="FK" style="shape=partialRectangle;top=0;left=0;bottom=0;fillColor=none;align=left;verticalAlign=top;spacingLeft=4;spacingRight=4;overflow=hidden;rotatable=0;points=[];portConstraint=eastwest;part=1;fontSize=12;" parent="jF-yR4b1AywF_RMoqf4l-48" vertex="1" connectable="0">
          <mxGeometry width="30" height="26" as="geometry"/>
        </mxCell>
        <mxCell id="jF-yR4b1AywF_RMoqf4l-50" value="role_name" style="shape=partialRectangle;top=0;left=0;right=0;bottom=0;align=left;verticalAlign=top;fillColor=none;spacingLeft=34;spacingRight=4;overflow=hidden;rotatable=0;points=[[0,0.5],[1,0.5]];portConstraint=eastwest;dropTarget=0;fontSize=12;" parent="jF-yR4b1AywF_RMoqf4l-45" vertex="1">
          <mxGeometry y="82" width="160" height="26" as="geometry"/>
        </mxCell>
        <mxCell id="jF-yR4b1AywF_RMoqf4l-51" value="" style="shape=partialRectangle;top=0;left=0;bottom=0;fillColor=none;align=left;verticalAlign=top;spacingLeft=4;spacingRight=4;overflow=hidden;rotatable=0;points=[];portConstraint=eastwest;part=1;fontSize=12;" parent="jF-yR4b1AywF_RMoqf4l-50" vertex="1" connectable="0">
          <mxGeometry width="30" height="26" as="geometry"/>
        </mxCell>
        <mxCell id="jF-yR4b1AywF_RMoqf4l-56" value="blade_user（机构用户）" style="swimlane;fontStyle=0;childLayout=stackLayout;horizontal=1;startSize=26;fillColor=#e0e0e0;horizontalStack=0;resizeParent=1;resizeParentMax=0;resizeLast=0;collapsible=1;marginBottom=0;swimlaneFillColor=#ffffff;align=center;fontSize=14;" parent="1" vertex="1">
          <mxGeometry x="220" y="180" width="160" height="134" as="geometry"/>
        </mxCell>
        <mxCell id="jF-yR4b1AywF_RMoqf4l-57" value="id" style="shape=partialRectangle;top=0;left=0;right=0;bottom=1;align=left;verticalAlign=middle;fillColor=none;spacingLeft=34;spacingRight=4;overflow=hidden;rotatable=0;points=[[0,0.5],[1,0.5]];portConstraint=eastwest;dropTarget=0;fontStyle=5;fontSize=12;" parent="jF-yR4b1AywF_RMoqf4l-56" vertex="1">
          <mxGeometry y="26" width="160" height="30" as="geometry"/>
        </mxCell>
        <mxCell id="jF-yR4b1AywF_RMoqf4l-58" value="PK" style="shape=partialRectangle;top=0;left=0;bottom=0;fillColor=none;align=left;verticalAlign=middle;spacingLeft=4;spacingRight=4;overflow=hidden;rotatable=0;points=[];portConstraint=eastwest;part=1;fontSize=12;" parent="jF-yR4b1AywF_RMoqf4l-57" vertex="1" connectable="0">
          <mxGeometry width="30" height="30" as="geometry"/>
        </mxCell>
        <mxCell id="jF-yR4b1AywF_RMoqf4l-59" value="tenant_id" style="shape=partialRectangle;top=0;left=0;right=0;bottom=0;align=left;verticalAlign=top;fillColor=#60a917;spacingLeft=34;spacingRight=4;overflow=hidden;rotatable=0;points=[[0,0.5],[1,0.5]];portConstraint=eastwest;dropTarget=0;fontSize=12;strokeColor=#2D7600;fontColor=#ffffff;" parent="jF-yR4b1AywF_RMoqf4l-56" vertex="1">
          <mxGeometry y="56" width="160" height="26" as="geometry"/>
        </mxCell>
        <mxCell id="jF-yR4b1AywF_RMoqf4l-60" value="FK" style="shape=partialRectangle;top=0;left=0;bottom=0;fillColor=none;align=left;verticalAlign=top;spacingLeft=4;spacingRight=4;overflow=hidden;rotatable=0;points=[];portConstraint=eastwest;part=1;fontSize=12;" parent="jF-yR4b1AywF_RMoqf4l-59" vertex="1" connectable="0">
          <mxGeometry width="30" height="26" as="geometry"/>
        </mxCell>
        <mxCell id="jF-yR4b1AywF_RMoqf4l-71" value="role_id" style="shape=partialRectangle;top=0;left=0;right=0;bottom=0;align=left;verticalAlign=top;fillColor=#d5e8d4;spacingLeft=34;spacingRight=4;overflow=hidden;rotatable=0;points=[[0,0.5],[1,0.5]];portConstraint=eastwest;dropTarget=0;fontSize=12;strokeColor=#82b366;" parent="jF-yR4b1AywF_RMoqf4l-56" vertex="1">
          <mxGeometry y="82" width="160" height="26" as="geometry"/>
        </mxCell>
        <mxCell id="jF-yR4b1AywF_RMoqf4l-72" value="FK" style="shape=partialRectangle;top=0;left=0;bottom=0;fillColor=none;align=left;verticalAlign=top;spacingLeft=4;spacingRight=4;overflow=hidden;rotatable=0;points=[];portConstraint=eastwest;part=1;fontSize=12;" parent="jF-yR4b1AywF_RMoqf4l-71" vertex="1" connectable="0">
          <mxGeometry width="30" height="26" as="geometry"/>
        </mxCell>
        <mxCell id="jF-yR4b1AywF_RMoqf4l-73" value="dept_id" style="shape=partialRectangle;top=0;left=0;right=0;bottom=0;align=left;verticalAlign=top;fillColor=#dae8fc;spacingLeft=34;spacingRight=4;overflow=hidden;rotatable=0;points=[[0,0.5],[1,0.5]];portConstraint=eastwest;dropTarget=0;fontSize=12;strokeColor=#6c8ebf;" parent="jF-yR4b1AywF_RMoqf4l-56" vertex="1">
          <mxGeometry y="108" width="160" height="26" as="geometry"/>
        </mxCell>
        <mxCell id="jF-yR4b1AywF_RMoqf4l-74" value="FK" style="shape=partialRectangle;top=0;left=0;bottom=0;fillColor=none;align=left;verticalAlign=top;spacingLeft=4;spacingRight=4;overflow=hidden;rotatable=0;points=[];portConstraint=eastwest;part=1;fontSize=12;" parent="jF-yR4b1AywF_RMoqf4l-73" vertex="1" connectable="0">
          <mxGeometry width="30" height="26" as="geometry"/>
        </mxCell>
        <mxCell id="jF-yR4b1AywF_RMoqf4l-77" value="blade_dept（组织）" style="swimlane;fontStyle=0;childLayout=stackLayout;horizontal=1;startSize=26;fillColor=#e0e0e0;horizontalStack=0;resizeParent=1;resizeParentMax=0;resizeLast=0;collapsible=1;marginBottom=0;swimlaneFillColor=#ffffff;align=center;fontSize=14;" parent="1" vertex="1">
          <mxGeometry x="220" y="360" width="160" height="108" as="geometry"/>
        </mxCell>
        <mxCell id="jF-yR4b1AywF_RMoqf4l-78" value="id" style="shape=partialRectangle;top=0;left=0;right=0;bottom=1;align=left;verticalAlign=middle;fillColor=#dae8fc;spacingLeft=34;spacingRight=4;overflow=hidden;rotatable=0;points=[[0,0.5],[1,0.5]];portConstraint=eastwest;dropTarget=0;fontStyle=5;fontSize=12;strokeColor=#6c8ebf;" parent="jF-yR4b1AywF_RMoqf4l-77" vertex="1">
          <mxGeometry y="26" width="160" height="30" as="geometry"/>
        </mxCell>
        <mxCell id="jF-yR4b1AywF_RMoqf4l-79" value="PK" style="shape=partialRectangle;top=0;left=0;bottom=0;fillColor=none;align=left;verticalAlign=middle;spacingLeft=4;spacingRight=4;overflow=hidden;rotatable=0;points=[];portConstraint=eastwest;part=1;fontSize=12;" parent="jF-yR4b1AywF_RMoqf4l-78" vertex="1" connectable="0">
          <mxGeometry width="30" height="30" as="geometry"/>
        </mxCell>
        <mxCell id="jF-yR4b1AywF_RMoqf4l-80" value="tenant_id" style="shape=partialRectangle;top=0;left=0;right=0;bottom=0;align=left;verticalAlign=top;fillColor=#60a917;spacingLeft=34;spacingRight=4;overflow=hidden;rotatable=0;points=[[0,0.5],[1,0.5]];portConstraint=eastwest;dropTarget=0;fontSize=12;strokeColor=#2D7600;fontColor=#ffffff;" parent="jF-yR4b1AywF_RMoqf4l-77" vertex="1">
          <mxGeometry y="56" width="160" height="26" as="geometry"/>
        </mxCell>
        <mxCell id="jF-yR4b1AywF_RMoqf4l-81" value="FK" style="shape=partialRectangle;top=0;left=0;bottom=0;fillColor=none;align=left;verticalAlign=top;spacingLeft=4;spacingRight=4;overflow=hidden;rotatable=0;points=[];portConstraint=eastwest;part=1;fontSize=12;" parent="jF-yR4b1AywF_RMoqf4l-80" vertex="1" connectable="0">
          <mxGeometry width="30" height="26" as="geometry"/>
        </mxCell>
        <mxCell id="jF-yR4b1AywF_RMoqf4l-84" value="dept_name" style="shape=partialRectangle;top=0;left=0;right=0;bottom=0;align=left;verticalAlign=top;fillColor=none;spacingLeft=34;spacingRight=4;overflow=hidden;rotatable=0;points=[[0,0.5],[1,0.5]];portConstraint=eastwest;dropTarget=0;fontSize=12;" parent="jF-yR4b1AywF_RMoqf4l-77" vertex="1">
          <mxGeometry y="82" width="160" height="26" as="geometry"/>
        </mxCell>
        <mxCell id="jF-yR4b1AywF_RMoqf4l-85" value="" style="shape=partialRectangle;top=0;left=0;bottom=0;fillColor=none;align=left;verticalAlign=top;spacingLeft=4;spacingRight=4;overflow=hidden;rotatable=0;points=[];portConstraint=eastwest;part=1;fontSize=12;" parent="jF-yR4b1AywF_RMoqf4l-84" vertex="1" connectable="0">
          <mxGeometry width="30" height="26" as="geometry"/>
        </mxCell>
        <mxCell id="jF-yR4b1AywF_RMoqf4l-88" style="edgeStyle=orthogonalEdgeStyle;rounded=0;orthogonalLoop=1;jettySize=auto;html=1;entryX=0;entryY=0.5;entryDx=0;entryDy=0;" parent="1" source="jF-yR4b1AywF_RMoqf4l-43" target="jF-yR4b1AywF_RMoqf4l-80" edge="1">
          <mxGeometry relative="1" as="geometry">
            <Array as="points">
              <mxPoint x="190" y="498"/>
              <mxPoint x="190" y="429"/>
            </Array>
          </mxGeometry>
        </mxCell>
        <mxCell id="jF-yR4b1AywF_RMoqf4l-89" value="hy_tenant_user（机构教师）" style="swimlane;fontStyle=0;childLayout=stackLayout;horizontal=1;startSize=26;fillColor=#e0e0e0;horizontalStack=0;resizeParent=1;resizeParentMax=0;resizeLast=0;collapsible=1;marginBottom=0;swimlaneFillColor=#ffffff;align=center;fontSize=14;" parent="1" vertex="1">
          <mxGeometry x="220" y="510" width="190" height="108" as="geometry"/>
        </mxCell>
        <mxCell id="jF-yR4b1AywF_RMoqf4l-90" value="id" style="shape=partialRectangle;top=0;left=0;right=0;bottom=1;align=left;verticalAlign=middle;fillColor=none;spacingLeft=34;spacingRight=4;overflow=hidden;rotatable=0;points=[[0,0.5],[1,0.5]];portConstraint=eastwest;dropTarget=0;fontStyle=5;fontSize=12;" parent="jF-yR4b1AywF_RMoqf4l-89" vertex="1">
          <mxGeometry y="26" width="190" height="30" as="geometry"/>
        </mxCell>
        <mxCell id="jF-yR4b1AywF_RMoqf4l-91" value="PK" style="shape=partialRectangle;top=0;left=0;bottom=0;fillColor=none;align=left;verticalAlign=middle;spacingLeft=4;spacingRight=4;overflow=hidden;rotatable=0;points=[];portConstraint=eastwest;part=1;fontSize=12;" parent="jF-yR4b1AywF_RMoqf4l-90" vertex="1" connectable="0">
          <mxGeometry width="30" height="30" as="geometry"/>
        </mxCell>
        <mxCell id="jF-yR4b1AywF_RMoqf4l-92" value="tenant_id" style="shape=partialRectangle;top=0;left=0;right=0;bottom=0;align=left;verticalAlign=top;fillColor=#60a917;spacingLeft=34;spacingRight=4;overflow=hidden;rotatable=0;points=[[0,0.5],[1,0.5]];portConstraint=eastwest;dropTarget=0;fontSize=12;strokeColor=#2D7600;fontColor=#ffffff;" parent="jF-yR4b1AywF_RMoqf4l-89" vertex="1">
          <mxGeometry y="56" width="190" height="26" as="geometry"/>
        </mxCell>
        <mxCell id="jF-yR4b1AywF_RMoqf4l-93" value="FK" style="shape=partialRectangle;top=0;left=0;bottom=0;fillColor=none;align=left;verticalAlign=top;spacingLeft=4;spacingRight=4;overflow=hidden;rotatable=0;points=[];portConstraint=eastwest;part=1;fontSize=12;" parent="jF-yR4b1AywF_RMoqf4l-92" vertex="1" connectable="0">
          <mxGeometry width="30" height="26" as="geometry"/>
        </mxCell>
        <mxCell id="jF-yR4b1AywF_RMoqf4l-94" value="user_id" style="shape=partialRectangle;top=0;left=0;right=0;bottom=0;align=left;verticalAlign=top;fillColor=none;spacingLeft=34;spacingRight=4;overflow=hidden;rotatable=0;points=[[0,0.5],[1,0.5]];portConstraint=eastwest;dropTarget=0;fontSize=12;" parent="jF-yR4b1AywF_RMoqf4l-89" vertex="1">
          <mxGeometry y="82" width="190" height="26" as="geometry"/>
        </mxCell>
        <mxCell id="jF-yR4b1AywF_RMoqf4l-95" value="" style="shape=partialRectangle;top=0;left=0;bottom=0;fillColor=none;align=left;verticalAlign=top;spacingLeft=4;spacingRight=4;overflow=hidden;rotatable=0;points=[];portConstraint=eastwest;part=1;fontSize=12;" parent="jF-yR4b1AywF_RMoqf4l-94" vertex="1" connectable="0">
          <mxGeometry width="30" height="26" as="geometry"/>
        </mxCell>
        <mxCell id="jF-yR4b1AywF_RMoqf4l-100" style="edgeStyle=orthogonalEdgeStyle;rounded=0;orthogonalLoop=1;jettySize=auto;html=1;entryX=0;entryY=0.5;entryDx=0;entryDy=0;" parent="1" source="jF-yR4b1AywF_RMoqf4l-43" target="jF-yR4b1AywF_RMoqf4l-92" edge="1">
          <mxGeometry relative="1" as="geometry">
            <Array as="points">
              <mxPoint x="190" y="498"/>
              <mxPoint x="190" y="579"/>
            </Array>
          </mxGeometry>
        </mxCell>
        <mxCell id="jF-yR4b1AywF_RMoqf4l-108" value="blade_role_menu" style="swimlane;fontStyle=0;childLayout=stackLayout;horizontal=1;startSize=26;fillColor=#e0e0e0;horizontalStack=0;resizeParent=1;resizeParentMax=0;resizeLast=0;collapsible=1;marginBottom=0;swimlaneFillColor=#ffffff;align=center;fontSize=14;" parent="1" vertex="1">
          <mxGeometry x="480" y="20" width="160" height="108" as="geometry"/>
        </mxCell>
        <mxCell id="jF-yR4b1AywF_RMoqf4l-109" value="id" style="shape=partialRectangle;top=0;left=0;right=0;bottom=1;align=left;verticalAlign=middle;fillColor=none;spacingLeft=34;spacingRight=4;overflow=hidden;rotatable=0;points=[[0,0.5],[1,0.5]];portConstraint=eastwest;dropTarget=0;fontStyle=5;fontSize=12;" parent="jF-yR4b1AywF_RMoqf4l-108" vertex="1">
          <mxGeometry y="26" width="160" height="30" as="geometry"/>
        </mxCell>
        <mxCell id="jF-yR4b1AywF_RMoqf4l-110" value="PK" style="shape=partialRectangle;top=0;left=0;bottom=0;fillColor=none;align=left;verticalAlign=middle;spacingLeft=4;spacingRight=4;overflow=hidden;rotatable=0;points=[];portConstraint=eastwest;part=1;fontSize=12;" parent="jF-yR4b1AywF_RMoqf4l-109" vertex="1" connectable="0">
          <mxGeometry width="30" height="30" as="geometry"/>
        </mxCell>
        <mxCell id="jF-yR4b1AywF_RMoqf4l-111" value="menu_id" style="shape=partialRectangle;top=0;left=0;right=0;bottom=0;align=left;verticalAlign=top;fillColor=none;spacingLeft=34;spacingRight=4;overflow=hidden;rotatable=0;points=[[0,0.5],[1,0.5]];portConstraint=eastwest;dropTarget=0;fontSize=12;" parent="jF-yR4b1AywF_RMoqf4l-108" vertex="1">
          <mxGeometry y="56" width="160" height="26" as="geometry"/>
        </mxCell>
        <mxCell id="jF-yR4b1AywF_RMoqf4l-112" value="FK" style="shape=partialRectangle;top=0;left=0;bottom=0;fillColor=none;align=left;verticalAlign=top;spacingLeft=4;spacingRight=4;overflow=hidden;rotatable=0;points=[];portConstraint=eastwest;part=1;fontSize=12;" parent="jF-yR4b1AywF_RMoqf4l-111" vertex="1" connectable="0">
          <mxGeometry width="30" height="26" as="geometry"/>
        </mxCell>
        <mxCell id="jF-yR4b1AywF_RMoqf4l-113" value="role_id" style="shape=partialRectangle;top=0;left=0;right=0;bottom=0;align=left;verticalAlign=top;fillColor=#d5e8d4;spacingLeft=34;spacingRight=4;overflow=hidden;rotatable=0;points=[[0,0.5],[1,0.5]];portConstraint=eastwest;dropTarget=0;fontSize=12;strokeColor=#82b366;" parent="jF-yR4b1AywF_RMoqf4l-108" vertex="1">
          <mxGeometry y="82" width="160" height="26" as="geometry"/>
        </mxCell>
        <mxCell id="jF-yR4b1AywF_RMoqf4l-114" value="FK" style="shape=partialRectangle;top=0;left=0;bottom=0;fillColor=none;align=left;verticalAlign=top;spacingLeft=4;spacingRight=4;overflow=hidden;rotatable=0;points=[];portConstraint=eastwest;part=1;fontSize=12;" parent="jF-yR4b1AywF_RMoqf4l-113" vertex="1" connectable="0">
          <mxGeometry width="30" height="26" as="geometry"/>
        </mxCell>
        <mxCell id="jF-yR4b1AywF_RMoqf4l-119" style="edgeStyle=orthogonalEdgeStyle;rounded=0;orthogonalLoop=1;jettySize=auto;html=1;entryX=0;entryY=0.5;entryDx=0;entryDy=0;" parent="1" source="jF-yR4b1AywF_RMoqf4l-46" target="jF-yR4b1AywF_RMoqf4l-113" edge="1">
          <mxGeometry relative="1" as="geometry"/>
        </mxCell>
        <mxCell id="jF-yR4b1AywF_RMoqf4l-123" value="cls_clazz（班级）" style="swimlane;fontStyle=0;childLayout=stackLayout;horizontal=1;startSize=26;fillColor=#e0e0e0;horizontalStack=0;resizeParent=1;resizeParentMax=0;resizeLast=0;collapsible=1;marginBottom=0;swimlaneFillColor=#ffffff;align=center;fontSize=14;" parent="1" vertex="1">
          <mxGeometry x="220" y="750" width="160" height="144" as="geometry"/>
        </mxCell>
        <mxCell id="jF-yR4b1AywF_RMoqf4l-124" value="id" style="shape=partialRectangle;top=0;left=0;right=0;bottom=1;align=left;verticalAlign=middle;fillColor=#f8cecc;spacingLeft=34;spacingRight=4;overflow=hidden;rotatable=0;points=[[0,0.5],[1,0.5]];portConstraint=eastwest;dropTarget=0;fontStyle=5;fontSize=12;strokeColor=#b85450;" parent="jF-yR4b1AywF_RMoqf4l-123" vertex="1">
          <mxGeometry y="26" width="160" height="30" as="geometry"/>
        </mxCell>
        <mxCell id="jF-yR4b1AywF_RMoqf4l-125" value="PK" style="shape=partialRectangle;top=0;left=0;bottom=0;fillColor=none;align=left;verticalAlign=middle;spacingLeft=4;spacingRight=4;overflow=hidden;rotatable=0;points=[];portConstraint=eastwest;part=1;fontSize=12;" parent="jF-yR4b1AywF_RMoqf4l-124" vertex="1" connectable="0">
          <mxGeometry width="30" height="30" as="geometry"/>
        </mxCell>
        <mxCell id="jF-yR4b1AywF_RMoqf4l-126" value="tenant_id" style="shape=partialRectangle;top=0;left=0;right=0;bottom=0;align=left;verticalAlign=top;fillColor=#60a917;spacingLeft=34;spacingRight=4;overflow=hidden;rotatable=0;points=[[0,0.5],[1,0.5]];portConstraint=eastwest;dropTarget=0;fontSize=12;strokeColor=#2D7600;fontColor=#ffffff;" parent="jF-yR4b1AywF_RMoqf4l-123" vertex="1">
          <mxGeometry y="56" width="160" height="26" as="geometry"/>
        </mxCell>
        <mxCell id="jF-yR4b1AywF_RMoqf4l-127" value="FK" style="shape=partialRectangle;top=0;left=0;bottom=0;fillColor=none;align=left;verticalAlign=top;spacingLeft=4;spacingRight=4;overflow=hidden;rotatable=0;points=[];portConstraint=eastwest;part=1;fontSize=12;" parent="jF-yR4b1AywF_RMoqf4l-126" vertex="1" connectable="0">
          <mxGeometry width="30" height="26" as="geometry"/>
        </mxCell>
        <mxCell id="jF-yR4b1AywF_RMoqf4l-128" value="name" style="shape=partialRectangle;top=0;left=0;right=0;bottom=0;align=left;verticalAlign=top;fillColor=none;spacingLeft=34;spacingRight=4;overflow=hidden;rotatable=0;points=[[0,0.5],[1,0.5]];portConstraint=eastwest;dropTarget=0;fontSize=12;" parent="jF-yR4b1AywF_RMoqf4l-123" vertex="1">
          <mxGeometry y="82" width="160" height="26" as="geometry"/>
        </mxCell>
        <mxCell id="jF-yR4b1AywF_RMoqf4l-129" value="" style="shape=partialRectangle;top=0;left=0;bottom=0;fillColor=none;align=left;verticalAlign=top;spacingLeft=4;spacingRight=4;overflow=hidden;rotatable=0;points=[];portConstraint=eastwest;part=1;fontSize=12;" parent="jF-yR4b1AywF_RMoqf4l-128" vertex="1" connectable="0">
          <mxGeometry width="30" height="26" as="geometry"/>
        </mxCell>
        <mxCell id="jF-yR4b1AywF_RMoqf4l-135" value="code" style="shape=partialRectangle;top=0;left=0;right=0;bottom=0;align=left;verticalAlign=top;fillColor=none;spacingLeft=34;spacingRight=4;overflow=hidden;rotatable=0;points=[[0,0.5],[1,0.5]];portConstraint=eastwest;dropTarget=0;fontSize=12;" parent="jF-yR4b1AywF_RMoqf4l-123" vertex="1">
          <mxGeometry y="108" width="160" height="26" as="geometry"/>
        </mxCell>
        <mxCell id="jF-yR4b1AywF_RMoqf4l-136" value="" style="shape=partialRectangle;top=0;left=0;bottom=0;fillColor=none;align=left;verticalAlign=top;spacingLeft=4;spacingRight=4;overflow=hidden;rotatable=0;points=[];portConstraint=eastwest;part=1;fontSize=12;" parent="jF-yR4b1AywF_RMoqf4l-135" vertex="1" connectable="0">
          <mxGeometry width="30" height="26" as="geometry"/>
        </mxCell>
        <mxCell id="jF-yR4b1AywF_RMoqf4l-132" value="" style="shape=partialRectangle;top=0;left=0;right=0;bottom=0;align=left;verticalAlign=top;fillColor=none;spacingLeft=34;spacingRight=4;overflow=hidden;rotatable=0;points=[[0,0.5],[1,0.5]];portConstraint=eastwest;dropTarget=0;fontSize=12;" parent="jF-yR4b1AywF_RMoqf4l-123" vertex="1">
          <mxGeometry y="134" width="160" height="10" as="geometry"/>
        </mxCell>
        <mxCell id="jF-yR4b1AywF_RMoqf4l-133" value="" style="shape=partialRectangle;top=0;left=0;bottom=0;fillColor=none;align=left;verticalAlign=top;spacingLeft=4;spacingRight=4;overflow=hidden;rotatable=0;points=[];portConstraint=eastwest;part=1;fontSize=12;" parent="jF-yR4b1AywF_RMoqf4l-132" vertex="1" connectable="0">
          <mxGeometry width="30" height="10" as="geometry"/>
        </mxCell>
        <mxCell id="jF-yR4b1AywF_RMoqf4l-134" style="edgeStyle=orthogonalEdgeStyle;rounded=0;orthogonalLoop=1;jettySize=auto;html=1;entryX=0;entryY=0.5;entryDx=0;entryDy=0;" parent="1" source="jF-yR4b1AywF_RMoqf4l-43" target="jF-yR4b1AywF_RMoqf4l-126" edge="1">
          <mxGeometry relative="1" as="geometry"/>
        </mxCell>
        <mxCell id="jF-yR4b1AywF_RMoqf4l-137" value="cls_clazz_student（班级学生）" style="swimlane;fontStyle=0;childLayout=stackLayout;horizontal=1;startSize=29;fillColor=#e0e0e0;horizontalStack=0;resizeParent=1;resizeParentMax=0;resizeLast=0;collapsible=1;marginBottom=0;swimlaneFillColor=#ffffff;align=center;fontSize=14;" parent="1" vertex="1">
          <mxGeometry x="480" y="630" width="210" height="137" as="geometry"/>
        </mxCell>
        <mxCell id="jF-yR4b1AywF_RMoqf4l-138" value="id" style="shape=partialRectangle;top=0;left=0;right=0;bottom=1;align=left;verticalAlign=middle;fillColor=none;spacingLeft=34;spacingRight=4;overflow=hidden;rotatable=0;points=[[0,0.5],[1,0.5]];portConstraint=eastwest;dropTarget=0;fontStyle=5;fontSize=12;" parent="jF-yR4b1AywF_RMoqf4l-137" vertex="1">
          <mxGeometry y="29" width="210" height="30" as="geometry"/>
        </mxCell>
        <mxCell id="jF-yR4b1AywF_RMoqf4l-139" value="PK" style="shape=partialRectangle;top=0;left=0;bottom=0;fillColor=none;align=left;verticalAlign=middle;spacingLeft=4;spacingRight=4;overflow=hidden;rotatable=0;points=[];portConstraint=eastwest;part=1;fontSize=12;" parent="jF-yR4b1AywF_RMoqf4l-138" vertex="1" connectable="0">
          <mxGeometry width="30" height="30" as="geometry"/>
        </mxCell>
        <mxCell id="jF-yR4b1AywF_RMoqf4l-140" value="tenant_id" style="shape=partialRectangle;top=0;left=0;right=0;bottom=0;align=left;verticalAlign=top;fillColor=#60a917;spacingLeft=34;spacingRight=4;overflow=hidden;rotatable=0;points=[[0,0.5],[1,0.5]];portConstraint=eastwest;dropTarget=0;fontSize=12;strokeColor=#2D7600;fontColor=#ffffff;" parent="jF-yR4b1AywF_RMoqf4l-137" vertex="1">
          <mxGeometry y="59" width="210" height="26" as="geometry"/>
        </mxCell>
        <mxCell id="jF-yR4b1AywF_RMoqf4l-141" value="FK" style="shape=partialRectangle;top=0;left=0;bottom=0;fillColor=none;align=left;verticalAlign=top;spacingLeft=4;spacingRight=4;overflow=hidden;rotatable=0;points=[];portConstraint=eastwest;part=1;fontSize=12;" parent="jF-yR4b1AywF_RMoqf4l-140" vertex="1" connectable="0">
          <mxGeometry width="30" height="26" as="geometry"/>
        </mxCell>
        <mxCell id="jF-yR4b1AywF_RMoqf4l-144" value="student_id" style="shape=partialRectangle;top=0;left=0;right=0;bottom=0;align=left;verticalAlign=top;fillColor=none;spacingLeft=34;spacingRight=4;overflow=hidden;rotatable=0;points=[[0,0.5],[1,0.5]];portConstraint=eastwest;dropTarget=0;fontSize=12;" parent="jF-yR4b1AywF_RMoqf4l-137" vertex="1">
          <mxGeometry y="85" width="210" height="26" as="geometry"/>
        </mxCell>
        <mxCell id="jF-yR4b1AywF_RMoqf4l-145" value="FK" style="shape=partialRectangle;top=0;left=0;bottom=0;fillColor=none;align=left;verticalAlign=top;spacingLeft=4;spacingRight=4;overflow=hidden;rotatable=0;points=[];portConstraint=eastwest;part=1;fontSize=12;" parent="jF-yR4b1AywF_RMoqf4l-144" vertex="1" connectable="0">
          <mxGeometry width="30" height="26" as="geometry"/>
        </mxCell>
        <mxCell id="jF-yR4b1AywF_RMoqf4l-142" value="clazz_id" style="shape=partialRectangle;top=0;left=0;right=0;bottom=0;align=left;verticalAlign=top;fillColor=#f8cecc;spacingLeft=34;spacingRight=4;overflow=hidden;rotatable=0;points=[[0,0.5],[1,0.5]];portConstraint=eastwest;dropTarget=0;fontSize=12;strokeColor=#b85450;" parent="jF-yR4b1AywF_RMoqf4l-137" vertex="1">
          <mxGeometry y="111" width="210" height="26" as="geometry"/>
        </mxCell>
        <mxCell id="jF-yR4b1AywF_RMoqf4l-143" value="FK" style="shape=partialRectangle;top=0;left=0;bottom=0;fillColor=none;align=left;verticalAlign=top;spacingLeft=4;spacingRight=4;overflow=hidden;rotatable=0;points=[];portConstraint=eastwest;part=1;fontSize=12;" parent="jF-yR4b1AywF_RMoqf4l-142" vertex="1" connectable="0">
          <mxGeometry width="30" height="26" as="geometry"/>
        </mxCell>
        <mxCell id="jF-yR4b1AywF_RMoqf4l-149" style="edgeStyle=orthogonalEdgeStyle;rounded=0;orthogonalLoop=1;jettySize=auto;html=1;entryX=0;entryY=0.5;entryDx=0;entryDy=0;" parent="1" source="jF-yR4b1AywF_RMoqf4l-124" target="jF-yR4b1AywF_RMoqf4l-142" edge="1">
          <mxGeometry relative="1" as="geometry"/>
        </mxCell>
        <mxCell id="jF-yR4b1AywF_RMoqf4l-150" value="cls_clazz_teacher（班级教师）" style="swimlane;fontStyle=0;childLayout=stackLayout;horizontal=1;startSize=26;fillColor=#e0e0e0;horizontalStack=0;resizeParent=1;resizeParentMax=0;resizeLast=0;collapsible=1;marginBottom=0;swimlaneFillColor=#ffffff;align=center;fontSize=14;" parent="1" vertex="1">
          <mxGeometry x="480" y="810" width="210" height="134" as="geometry"/>
        </mxCell>
        <mxCell id="jF-yR4b1AywF_RMoqf4l-151" value="id" style="shape=partialRectangle;top=0;left=0;right=0;bottom=1;align=left;verticalAlign=middle;fillColor=none;spacingLeft=34;spacingRight=4;overflow=hidden;rotatable=0;points=[[0,0.5],[1,0.5]];portConstraint=eastwest;dropTarget=0;fontStyle=5;fontSize=12;" parent="jF-yR4b1AywF_RMoqf4l-150" vertex="1">
          <mxGeometry y="26" width="210" height="30" as="geometry"/>
        </mxCell>
        <mxCell id="jF-yR4b1AywF_RMoqf4l-152" value="PK" style="shape=partialRectangle;top=0;left=0;bottom=0;fillColor=none;align=left;verticalAlign=middle;spacingLeft=4;spacingRight=4;overflow=hidden;rotatable=0;points=[];portConstraint=eastwest;part=1;fontSize=12;" parent="jF-yR4b1AywF_RMoqf4l-151" vertex="1" connectable="0">
          <mxGeometry width="30" height="30" as="geometry"/>
        </mxCell>
        <mxCell id="jF-yR4b1AywF_RMoqf4l-153" value="tenant_id" style="shape=partialRectangle;top=0;left=0;right=0;bottom=0;align=left;verticalAlign=top;fillColor=#60a917;spacingLeft=34;spacingRight=4;overflow=hidden;rotatable=0;points=[[0,0.5],[1,0.5]];portConstraint=eastwest;dropTarget=0;fontSize=12;strokeColor=#2D7600;fontColor=#ffffff;" parent="jF-yR4b1AywF_RMoqf4l-150" vertex="1">
          <mxGeometry y="56" width="210" height="26" as="geometry"/>
        </mxCell>
        <mxCell id="jF-yR4b1AywF_RMoqf4l-154" value="FK" style="shape=partialRectangle;top=0;left=0;bottom=0;fillColor=none;align=left;verticalAlign=top;spacingLeft=4;spacingRight=4;overflow=hidden;rotatable=0;points=[];portConstraint=eastwest;part=1;fontSize=12;" parent="jF-yR4b1AywF_RMoqf4l-153" vertex="1" connectable="0">
          <mxGeometry width="30" height="26" as="geometry"/>
        </mxCell>
        <mxCell id="jF-yR4b1AywF_RMoqf4l-155" value="clazz_id" style="shape=partialRectangle;top=0;left=0;right=0;bottom=0;align=left;verticalAlign=top;fillColor=#f8cecc;spacingLeft=34;spacingRight=4;overflow=hidden;rotatable=0;points=[[0,0.5],[1,0.5]];portConstraint=eastwest;dropTarget=0;fontSize=12;strokeColor=#b85450;" parent="jF-yR4b1AywF_RMoqf4l-150" vertex="1">
          <mxGeometry y="82" width="210" height="26" as="geometry"/>
        </mxCell>
        <mxCell id="jF-yR4b1AywF_RMoqf4l-156" value="FK" style="shape=partialRectangle;top=0;left=0;bottom=0;fillColor=none;align=left;verticalAlign=top;spacingLeft=4;spacingRight=4;overflow=hidden;rotatable=0;points=[];portConstraint=eastwest;part=1;fontSize=12;" parent="jF-yR4b1AywF_RMoqf4l-155" vertex="1" connectable="0">
          <mxGeometry width="30" height="26" as="geometry"/>
        </mxCell>
        <mxCell id="jF-yR4b1AywF_RMoqf4l-157" value="teacher_id" style="shape=partialRectangle;top=0;left=0;right=0;bottom=0;align=left;verticalAlign=top;fillColor=none;spacingLeft=34;spacingRight=4;overflow=hidden;rotatable=0;points=[[0,0.5],[1,0.5]];portConstraint=eastwest;dropTarget=0;fontSize=12;" parent="jF-yR4b1AywF_RMoqf4l-150" vertex="1">
          <mxGeometry y="108" width="210" height="26" as="geometry"/>
        </mxCell>
        <mxCell id="jF-yR4b1AywF_RMoqf4l-158" value="FK" style="shape=partialRectangle;top=0;left=0;bottom=0;fillColor=none;align=left;verticalAlign=top;spacingLeft=4;spacingRight=4;overflow=hidden;rotatable=0;points=[];portConstraint=eastwest;part=1;fontSize=12;" parent="jF-yR4b1AywF_RMoqf4l-157" vertex="1" connectable="0">
          <mxGeometry width="30" height="26" as="geometry"/>
        </mxCell>
        <mxCell id="jF-yR4b1AywF_RMoqf4l-161" style="edgeStyle=orthogonalEdgeStyle;rounded=0;orthogonalLoop=1;jettySize=auto;html=1;entryX=0;entryY=0.5;entryDx=0;entryDy=0;" parent="1" source="jF-yR4b1AywF_RMoqf4l-124" target="jF-yR4b1AywF_RMoqf4l-155" edge="1">
          <mxGeometry relative="1" as="geometry"/>
        </mxCell>
        <mxCell id="jF-yR4b1AywF_RMoqf4l-162" style="edgeStyle=orthogonalEdgeStyle;rounded=0;orthogonalLoop=1;jettySize=auto;html=1;exitX=0.5;exitY=0;exitDx=0;exitDy=0;entryX=0.45;entryY=-0.018;entryDx=0;entryDy=0;entryPerimeter=0;" parent="1" source="jF-yR4b1AywF_RMoqf4l-56" target="jF-yR4b1AywF_RMoqf4l-56" edge="1">
          <mxGeometry relative="1" as="geometry"/>
        </mxCell>
        <mxCell id="jF-yR4b1AywF_RMoqf4l-163" style="edgeStyle=orthogonalEdgeStyle;rounded=0;orthogonalLoop=1;jettySize=auto;html=1;entryX=1;entryY=0.5;entryDx=0;entryDy=0;" parent="1" source="jF-yR4b1AywF_RMoqf4l-46" target="jF-yR4b1AywF_RMoqf4l-71" edge="1">
          <mxGeometry relative="1" as="geometry">
            <Array as="points">
              <mxPoint x="420" y="61"/>
              <mxPoint x="420" y="275"/>
            </Array>
          </mxGeometry>
        </mxCell>
        <mxCell id="jF-yR4b1AywF_RMoqf4l-164" style="edgeStyle=orthogonalEdgeStyle;rounded=0;orthogonalLoop=1;jettySize=auto;html=1;entryX=0;entryY=0.5;entryDx=0;entryDy=0;" parent="1" source="jF-yR4b1AywF_RMoqf4l-43" target="jF-yR4b1AywF_RMoqf4l-59" edge="1">
          <mxGeometry relative="1" as="geometry"/>
        </mxCell>
        <mxCell id="jF-yR4b1AywF_RMoqf4l-165" style="edgeStyle=orthogonalEdgeStyle;rounded=0;orthogonalLoop=1;jettySize=auto;html=1;" parent="1" source="jF-yR4b1AywF_RMoqf4l-78" target="jF-yR4b1AywF_RMoqf4l-73" edge="1">
          <mxGeometry relative="1" as="geometry">
            <Array as="points">
              <mxPoint x="420" y="401"/>
              <mxPoint x="420" y="301"/>
            </Array>
          </mxGeometry>
        </mxCell>
        <mxCell id="jF-yR4b1AywF_RMoqf4l-166" value="coe_schedule" style="swimlane;fontStyle=0;childLayout=stackLayout;horizontal=1;startSize=26;fillColor=#e0e0e0;horizontalStack=0;resizeParent=1;resizeParentMax=0;resizeLast=0;collapsible=1;marginBottom=0;swimlaneFillColor=#ffffff;align=center;fontSize=14;" parent="1" vertex="1">
          <mxGeometry x="480" y="1000" width="160" height="108" as="geometry"/>
        </mxCell>
        <mxCell id="jF-yR4b1AywF_RMoqf4l-167" value="id" style="shape=partialRectangle;top=0;left=0;right=0;bottom=1;align=left;verticalAlign=middle;fillColor=#ffe6cc;spacingLeft=34;spacingRight=4;overflow=hidden;rotatable=0;points=[[0,0.5],[1,0.5]];portConstraint=eastwest;dropTarget=0;fontStyle=5;fontSize=12;strokeColor=#d79b00;" parent="jF-yR4b1AywF_RMoqf4l-166" vertex="1">
          <mxGeometry y="26" width="160" height="30" as="geometry"/>
        </mxCell>
        <mxCell id="jF-yR4b1AywF_RMoqf4l-168" value="PK" style="shape=partialRectangle;top=0;left=0;bottom=0;fillColor=none;align=left;verticalAlign=middle;spacingLeft=4;spacingRight=4;overflow=hidden;rotatable=0;points=[];portConstraint=eastwest;part=1;fontSize=12;" parent="jF-yR4b1AywF_RMoqf4l-167" vertex="1" connectable="0">
          <mxGeometry width="30" height="30" as="geometry"/>
        </mxCell>
        <mxCell id="jF-yR4b1AywF_RMoqf4l-169" value="tenant_id" style="shape=partialRectangle;top=0;left=0;right=0;bottom=0;align=left;verticalAlign=top;fillColor=#60a917;spacingLeft=34;spacingRight=4;overflow=hidden;rotatable=0;points=[[0,0.5],[1,0.5]];portConstraint=eastwest;dropTarget=0;fontSize=12;strokeColor=#2D7600;fontColor=#ffffff;" parent="jF-yR4b1AywF_RMoqf4l-166" vertex="1">
          <mxGeometry y="56" width="160" height="26" as="geometry"/>
        </mxCell>
        <mxCell id="jF-yR4b1AywF_RMoqf4l-170" value="" style="shape=partialRectangle;top=0;left=0;bottom=0;fillColor=none;align=left;verticalAlign=top;spacingLeft=4;spacingRight=4;overflow=hidden;rotatable=0;points=[];portConstraint=eastwest;part=1;fontSize=12;" parent="jF-yR4b1AywF_RMoqf4l-169" vertex="1" connectable="0">
          <mxGeometry width="30" height="26" as="geometry"/>
        </mxCell>
        <mxCell id="jF-yR4b1AywF_RMoqf4l-171" value="clazz_id" style="shape=partialRectangle;top=0;left=0;right=0;bottom=0;align=left;verticalAlign=top;fillColor=#f8cecc;spacingLeft=34;spacingRight=4;overflow=hidden;rotatable=0;points=[[0,0.5],[1,0.5]];portConstraint=eastwest;dropTarget=0;fontSize=12;strokeColor=#b85450;" parent="jF-yR4b1AywF_RMoqf4l-166" vertex="1">
          <mxGeometry y="82" width="160" height="26" as="geometry"/>
        </mxCell>
        <mxCell id="jF-yR4b1AywF_RMoqf4l-172" value="" style="shape=partialRectangle;top=0;left=0;bottom=0;fillColor=none;align=left;verticalAlign=top;spacingLeft=4;spacingRight=4;overflow=hidden;rotatable=0;points=[];portConstraint=eastwest;part=1;fontSize=12;" parent="jF-yR4b1AywF_RMoqf4l-171" vertex="1" connectable="0">
          <mxGeometry width="30" height="26" as="geometry"/>
        </mxCell>
        <mxCell id="jF-yR4b1AywF_RMoqf4l-177" style="edgeStyle=orthogonalEdgeStyle;rounded=0;orthogonalLoop=1;jettySize=auto;html=1;entryX=0;entryY=0.5;entryDx=0;entryDy=0;" parent="1" source="jF-yR4b1AywF_RMoqf4l-124" edge="1" target="jF-yR4b1AywF_RMoqf4l-171">
          <mxGeometry relative="1" as="geometry">
            <mxPoint x="480" y="1030" as="targetPoint"/>
            <Array as="points">
              <mxPoint x="430" y="791"/>
              <mxPoint x="430" y="1095"/>
            </Array>
          </mxGeometry>
        </mxCell>
        <mxCell id="jF-yR4b1AywF_RMoqf4l-180" value="coe_schedule_cont" style="swimlane;fontStyle=0;childLayout=stackLayout;horizontal=1;startSize=26;fillColor=#e0e0e0;horizontalStack=0;resizeParent=1;resizeParentMax=0;resizeLast=0;collapsible=1;marginBottom=0;swimlaneFillColor=#ffffff;align=center;fontSize=14;" parent="1" vertex="1">
          <mxGeometry x="720" y="1000" width="160" height="134" as="geometry"/>
        </mxCell>
        <mxCell id="jF-yR4b1AywF_RMoqf4l-181" value="id" style="shape=partialRectangle;top=0;left=0;right=0;bottom=1;align=left;verticalAlign=middle;fillColor=#6d8764;spacingLeft=34;spacingRight=4;overflow=hidden;rotatable=0;points=[[0,0.5],[1,0.5]];portConstraint=eastwest;dropTarget=0;fontStyle=5;fontSize=12;strokeColor=#3A5431;fontColor=#ffffff;" parent="jF-yR4b1AywF_RMoqf4l-180" vertex="1">
          <mxGeometry y="26" width="160" height="30" as="geometry"/>
        </mxCell>
        <mxCell id="jF-yR4b1AywF_RMoqf4l-182" value="PK" style="shape=partialRectangle;top=0;left=0;bottom=0;fillColor=none;align=left;verticalAlign=middle;spacingLeft=4;spacingRight=4;overflow=hidden;rotatable=0;points=[];portConstraint=eastwest;part=1;fontSize=12;" parent="jF-yR4b1AywF_RMoqf4l-181" vertex="1" connectable="0">
          <mxGeometry width="30" height="30" as="geometry"/>
        </mxCell>
        <mxCell id="jF-yR4b1AywF_RMoqf4l-183" value="clazz_id" style="shape=partialRectangle;top=0;left=0;right=0;bottom=0;align=left;verticalAlign=top;fillColor=#f8cecc;spacingLeft=34;spacingRight=4;overflow=hidden;rotatable=0;points=[[0,0.5],[1,0.5]];portConstraint=eastwest;dropTarget=0;fontSize=12;strokeColor=#b85450;" parent="jF-yR4b1AywF_RMoqf4l-180" vertex="1">
          <mxGeometry y="56" width="160" height="26" as="geometry"/>
        </mxCell>
        <mxCell id="jF-yR4b1AywF_RMoqf4l-184" value="FK" style="shape=partialRectangle;top=0;left=0;bottom=0;fillColor=none;align=left;verticalAlign=top;spacingLeft=4;spacingRight=4;overflow=hidden;rotatable=0;points=[];portConstraint=eastwest;part=1;fontSize=12;" parent="jF-yR4b1AywF_RMoqf4l-183" vertex="1" connectable="0">
          <mxGeometry width="30" height="26" as="geometry"/>
        </mxCell>
        <mxCell id="jF-yR4b1AywF_RMoqf4l-185" value="schedule_id" style="shape=partialRectangle;top=0;left=0;right=0;bottom=0;align=left;verticalAlign=top;fillColor=#ffe6cc;spacingLeft=34;spacingRight=4;overflow=hidden;rotatable=0;points=[[0,0.5],[1,0.5]];portConstraint=eastwest;dropTarget=0;fontSize=12;strokeColor=#d79b00;" parent="jF-yR4b1AywF_RMoqf4l-180" vertex="1">
          <mxGeometry y="82" width="160" height="26" as="geometry"/>
        </mxCell>
        <mxCell id="jF-yR4b1AywF_RMoqf4l-186" value="FK" style="shape=partialRectangle;top=0;left=0;bottom=0;fillColor=none;align=left;verticalAlign=top;spacingLeft=4;spacingRight=4;overflow=hidden;rotatable=0;points=[];portConstraint=eastwest;part=1;fontSize=12;" parent="jF-yR4b1AywF_RMoqf4l-185" vertex="1" connectable="0">
          <mxGeometry width="30" height="26" as="geometry"/>
        </mxCell>
        <mxCell id="jF-yR4b1AywF_RMoqf4l-187" value="type" style="shape=partialRectangle;top=0;left=0;right=0;bottom=0;align=left;verticalAlign=top;fillColor=none;spacingLeft=34;spacingRight=4;overflow=hidden;rotatable=0;points=[[0,0.5],[1,0.5]];portConstraint=eastwest;dropTarget=0;fontSize=12;" parent="jF-yR4b1AywF_RMoqf4l-180" vertex="1">
          <mxGeometry y="108" width="160" height="26" as="geometry"/>
        </mxCell>
        <mxCell id="jF-yR4b1AywF_RMoqf4l-188" value="" style="shape=partialRectangle;top=0;left=0;bottom=0;fillColor=none;align=left;verticalAlign=top;spacingLeft=4;spacingRight=4;overflow=hidden;rotatable=0;points=[];portConstraint=eastwest;part=1;fontSize=12;" parent="jF-yR4b1AywF_RMoqf4l-187" vertex="1" connectable="0">
          <mxGeometry width="30" height="26" as="geometry"/>
        </mxCell>
        <mxCell id="jF-yR4b1AywF_RMoqf4l-191" style="edgeStyle=orthogonalEdgeStyle;rounded=0;orthogonalLoop=1;jettySize=auto;html=1;entryX=0;entryY=0.5;entryDx=0;entryDy=0;" parent="1" source="jF-yR4b1AywF_RMoqf4l-167" target="jF-yR4b1AywF_RMoqf4l-185" edge="1">
          <mxGeometry relative="1" as="geometry"/>
        </mxCell>
        <mxCell id="jF-yR4b1AywF_RMoqf4l-192" value="coe_schedule_cont_card（包与卡片关系表）" style="swimlane;fontStyle=0;childLayout=stackLayout;horizontal=1;startSize=26;fillColor=#e0e0e0;horizontalStack=0;resizeParent=1;resizeParentMax=0;resizeLast=0;collapsible=1;marginBottom=0;swimlaneFillColor=#ffffff;align=center;fontSize=14;" parent="1" vertex="1">
          <mxGeometry x="950" y="870" width="280" height="186" as="geometry"/>
        </mxCell>
        <mxCell id="jF-yR4b1AywF_RMoqf4l-193" value="id" style="shape=partialRectangle;top=0;left=0;right=0;bottom=1;align=left;verticalAlign=middle;fillColor=#f0a30a;spacingLeft=34;spacingRight=4;overflow=hidden;rotatable=0;points=[[0,0.5],[1,0.5]];portConstraint=eastwest;dropTarget=0;fontStyle=5;fontSize=12;strokeColor=#BD7000;fontColor=#ffffff;" parent="jF-yR4b1AywF_RMoqf4l-192" vertex="1">
          <mxGeometry y="26" width="280" height="30" as="geometry"/>
        </mxCell>
        <mxCell id="jF-yR4b1AywF_RMoqf4l-194" value="PK" style="shape=partialRectangle;top=0;left=0;bottom=0;fillColor=none;align=left;verticalAlign=middle;spacingLeft=4;spacingRight=4;overflow=hidden;rotatable=0;points=[];portConstraint=eastwest;part=1;fontSize=12;" parent="jF-yR4b1AywF_RMoqf4l-193" vertex="1" connectable="0">
          <mxGeometry width="30" height="30" as="geometry"/>
        </mxCell>
        <mxCell id="jF-yR4b1AywF_RMoqf4l-195" value="clazz_id" style="shape=partialRectangle;top=0;left=0;right=0;bottom=0;align=left;verticalAlign=top;fillColor=#f8cecc;spacingLeft=34;spacingRight=4;overflow=hidden;rotatable=0;points=[[0,0.5],[1,0.5]];portConstraint=eastwest;dropTarget=0;fontSize=12;strokeColor=#b85450;" parent="jF-yR4b1AywF_RMoqf4l-192" vertex="1">
          <mxGeometry y="56" width="280" height="26" as="geometry"/>
        </mxCell>
        <mxCell id="jF-yR4b1AywF_RMoqf4l-196" value="" style="shape=partialRectangle;top=0;left=0;bottom=0;fillColor=none;align=left;verticalAlign=top;spacingLeft=4;spacingRight=4;overflow=hidden;rotatable=0;points=[];portConstraint=eastwest;part=1;fontSize=12;" parent="jF-yR4b1AywF_RMoqf4l-195" vertex="1" connectable="0">
          <mxGeometry width="30" height="26" as="geometry"/>
        </mxCell>
        <mxCell id="jF-yR4b1AywF_RMoqf4l-197" value="schedule_id" style="shape=partialRectangle;top=0;left=0;right=0;bottom=0;align=left;verticalAlign=top;fillColor=#ffe6cc;spacingLeft=34;spacingRight=4;overflow=hidden;rotatable=0;points=[[0,0.5],[1,0.5]];portConstraint=eastwest;dropTarget=0;fontSize=12;strokeColor=#d79b00;" parent="jF-yR4b1AywF_RMoqf4l-192" vertex="1">
          <mxGeometry y="82" width="280" height="26" as="geometry"/>
        </mxCell>
        <mxCell id="jF-yR4b1AywF_RMoqf4l-198" value="" style="shape=partialRectangle;top=0;left=0;bottom=0;fillColor=none;align=left;verticalAlign=top;spacingLeft=4;spacingRight=4;overflow=hidden;rotatable=0;points=[];portConstraint=eastwest;part=1;fontSize=12;" parent="jF-yR4b1AywF_RMoqf4l-197" vertex="1" connectable="0">
          <mxGeometry width="30" height="26" as="geometry"/>
        </mxCell>
        <mxCell id="jF-yR4b1AywF_RMoqf4l-199" value="cont_id" style="shape=partialRectangle;top=0;left=0;right=0;bottom=0;align=left;verticalAlign=top;fillColor=#6d8764;spacingLeft=34;spacingRight=4;overflow=hidden;rotatable=0;points=[[0,0.5],[1,0.5]];portConstraint=eastwest;dropTarget=0;fontSize=12;strokeColor=#3A5431;fontColor=#ffffff;" parent="jF-yR4b1AywF_RMoqf4l-192" vertex="1">
          <mxGeometry y="108" width="280" height="26" as="geometry"/>
        </mxCell>
        <mxCell id="jF-yR4b1AywF_RMoqf4l-200" value="" style="shape=partialRectangle;top=0;left=0;bottom=0;fillColor=none;align=left;verticalAlign=top;spacingLeft=4;spacingRight=4;overflow=hidden;rotatable=0;points=[];portConstraint=eastwest;part=1;fontSize=12;" parent="jF-yR4b1AywF_RMoqf4l-199" vertex="1" connectable="0">
          <mxGeometry width="30" height="26" as="geometry"/>
        </mxCell>
        <mxCell id="jF-yR4b1AywF_RMoqf4l-203" value="card_type" style="shape=partialRectangle;top=0;left=0;right=0;bottom=0;align=left;verticalAlign=top;fillColor=none;spacingLeft=34;spacingRight=4;overflow=hidden;rotatable=0;points=[[0,0.5],[1,0.5]];portConstraint=eastwest;dropTarget=0;fontSize=12;" parent="jF-yR4b1AywF_RMoqf4l-192" vertex="1">
          <mxGeometry y="134" width="280" height="26" as="geometry"/>
        </mxCell>
        <mxCell id="jF-yR4b1AywF_RMoqf4l-204" value="" style="shape=partialRectangle;top=0;left=0;bottom=0;fillColor=none;align=left;verticalAlign=top;spacingLeft=4;spacingRight=4;overflow=hidden;rotatable=0;points=[];portConstraint=eastwest;part=1;fontSize=12;" parent="jF-yR4b1AywF_RMoqf4l-203" vertex="1" connectable="0">
          <mxGeometry width="30" height="26" as="geometry"/>
        </mxCell>
        <mxCell id="jF-yR4b1AywF_RMoqf4l-219" value="card_id" style="shape=partialRectangle;top=0;left=0;right=0;bottom=0;align=left;verticalAlign=top;fillColor=#76608a;spacingLeft=34;spacingRight=4;overflow=hidden;rotatable=0;points=[[0,0.5],[1,0.5]];portConstraint=eastwest;dropTarget=0;fontSize=12;strokeColor=#432D57;fontColor=#ffffff;" parent="jF-yR4b1AywF_RMoqf4l-192" vertex="1">
          <mxGeometry y="160" width="280" height="26" as="geometry"/>
        </mxCell>
        <mxCell id="jF-yR4b1AywF_RMoqf4l-220" value="" style="shape=partialRectangle;top=0;left=0;bottom=0;fillColor=none;align=left;verticalAlign=top;spacingLeft=4;spacingRight=4;overflow=hidden;rotatable=0;points=[];portConstraint=eastwest;part=1;fontSize=12;" parent="jF-yR4b1AywF_RMoqf4l-219" vertex="1" connectable="0">
          <mxGeometry width="30" height="26" as="geometry"/>
        </mxCell>
        <mxCell id="jF-yR4b1AywF_RMoqf4l-205" style="edgeStyle=orthogonalEdgeStyle;rounded=0;orthogonalLoop=1;jettySize=auto;html=1;entryX=0;entryY=0.5;entryDx=0;entryDy=0;" parent="1" source="jF-yR4b1AywF_RMoqf4l-181" target="jF-yR4b1AywF_RMoqf4l-199" edge="1">
          <mxGeometry relative="1" as="geometry"/>
        </mxCell>
        <mxCell id="jF-yR4b1AywF_RMoqf4l-206" value="coe_schedule_cont_page_card（备课包页卡片关系表）" style="swimlane;fontStyle=0;childLayout=stackLayout;horizontal=1;startSize=26;fillColor=#e0e0e0;horizontalStack=0;resizeParent=1;resizeParentMax=0;resizeLast=0;collapsible=1;marginBottom=0;swimlaneFillColor=#ffffff;align=center;fontSize=14;" parent="1" vertex="1">
          <mxGeometry x="950" y="1080" width="350" height="186" as="geometry"/>
        </mxCell>
        <mxCell id="jF-yR4b1AywF_RMoqf4l-207" value="id" style="shape=partialRectangle;top=0;left=0;right=0;bottom=1;align=left;verticalAlign=middle;fillColor=none;spacingLeft=34;spacingRight=4;overflow=hidden;rotatable=0;points=[[0,0.5],[1,0.5]];portConstraint=eastwest;dropTarget=0;fontStyle=5;fontSize=12;" parent="jF-yR4b1AywF_RMoqf4l-206" vertex="1">
          <mxGeometry y="26" width="350" height="30" as="geometry"/>
        </mxCell>
        <mxCell id="jF-yR4b1AywF_RMoqf4l-208" value="PK" style="shape=partialRectangle;top=0;left=0;bottom=0;fillColor=none;align=left;verticalAlign=middle;spacingLeft=4;spacingRight=4;overflow=hidden;rotatable=0;points=[];portConstraint=eastwest;part=1;fontSize=12;" parent="jF-yR4b1AywF_RMoqf4l-207" vertex="1" connectable="0">
          <mxGeometry width="30" height="30" as="geometry"/>
        </mxCell>
        <mxCell id="jF-yR4b1AywF_RMoqf4l-209" value="clazz_id" style="shape=partialRectangle;top=0;left=0;right=0;bottom=0;align=left;verticalAlign=top;fillColor=#f8cecc;spacingLeft=34;spacingRight=4;overflow=hidden;rotatable=0;points=[[0,0.5],[1,0.5]];portConstraint=eastwest;dropTarget=0;fontSize=12;strokeColor=#b85450;" parent="jF-yR4b1AywF_RMoqf4l-206" vertex="1">
          <mxGeometry y="56" width="350" height="26" as="geometry"/>
        </mxCell>
        <mxCell id="jF-yR4b1AywF_RMoqf4l-210" value="FK" style="shape=partialRectangle;top=0;left=0;bottom=0;fillColor=none;align=left;verticalAlign=top;spacingLeft=4;spacingRight=4;overflow=hidden;rotatable=0;points=[];portConstraint=eastwest;part=1;fontSize=12;" parent="jF-yR4b1AywF_RMoqf4l-209" vertex="1" connectable="0">
          <mxGeometry width="30" height="26" as="geometry"/>
        </mxCell>
        <mxCell id="jF-yR4b1AywF_RMoqf4l-224" value="cont_id" style="shape=partialRectangle;top=0;left=0;right=0;bottom=0;align=left;verticalAlign=top;fillColor=#6d8764;spacingLeft=34;spacingRight=4;overflow=hidden;rotatable=0;points=[[0,0.5],[1,0.5]];portConstraint=eastwest;dropTarget=0;fontSize=12;strokeColor=#3A5431;fontColor=#ffffff;" parent="jF-yR4b1AywF_RMoqf4l-206" vertex="1">
          <mxGeometry y="82" width="350" height="26" as="geometry"/>
        </mxCell>
        <mxCell id="jF-yR4b1AywF_RMoqf4l-225" value="FK" style="shape=partialRectangle;top=0;left=0;bottom=0;fillColor=none;align=left;verticalAlign=top;spacingLeft=4;spacingRight=4;overflow=hidden;rotatable=0;points=[];portConstraint=eastwest;part=1;fontSize=12;" parent="jF-yR4b1AywF_RMoqf4l-224" vertex="1" connectable="0">
          <mxGeometry width="30" height="26" as="geometry"/>
        </mxCell>
        <mxCell id="jF-yR4b1AywF_RMoqf4l-211" value="schedule_id" style="shape=partialRectangle;top=0;left=0;right=0;bottom=0;align=left;verticalAlign=top;fillColor=#ffe6cc;spacingLeft=34;spacingRight=4;overflow=hidden;rotatable=0;points=[[0,0.5],[1,0.5]];portConstraint=eastwest;dropTarget=0;fontSize=12;strokeColor=#d79b00;" parent="jF-yR4b1AywF_RMoqf4l-206" vertex="1">
          <mxGeometry y="108" width="350" height="26" as="geometry"/>
        </mxCell>
        <mxCell id="jF-yR4b1AywF_RMoqf4l-212" value="FK" style="shape=partialRectangle;top=0;left=0;bottom=0;fillColor=none;align=left;verticalAlign=top;spacingLeft=4;spacingRight=4;overflow=hidden;rotatable=0;points=[];portConstraint=eastwest;part=1;fontSize=12;" parent="jF-yR4b1AywF_RMoqf4l-211" vertex="1" connectable="0">
          <mxGeometry width="30" height="26" as="geometry"/>
        </mxCell>
        <mxCell id="jF-yR4b1AywF_RMoqf4l-213" value="card_id" style="shape=partialRectangle;top=0;left=0;right=0;bottom=0;align=left;verticalAlign=top;fillColor=#76608a;spacingLeft=34;spacingRight=4;overflow=hidden;rotatable=0;points=[[0,0.5],[1,0.5]];portConstraint=eastwest;dropTarget=0;fontSize=12;strokeColor=#432D57;fontColor=#ffffff;" parent="jF-yR4b1AywF_RMoqf4l-206" vertex="1">
          <mxGeometry y="134" width="350" height="26" as="geometry"/>
        </mxCell>
        <mxCell id="jF-yR4b1AywF_RMoqf4l-214" value="FK" style="shape=partialRectangle;top=0;left=0;bottom=0;fillColor=none;align=left;verticalAlign=top;spacingLeft=4;spacingRight=4;overflow=hidden;rotatable=0;points=[];portConstraint=eastwest;part=1;fontSize=12;" parent="jF-yR4b1AywF_RMoqf4l-213" vertex="1" connectable="0">
          <mxGeometry width="30" height="26" as="geometry"/>
        </mxCell>
        <mxCell id="jF-yR4b1AywF_RMoqf4l-221" value="page_id" style="shape=partialRectangle;top=0;left=0;right=0;bottom=0;align=left;verticalAlign=top;fillColor=#f0a30a;spacingLeft=34;spacingRight=4;overflow=hidden;rotatable=0;points=[[0,0.5],[1,0.5]];portConstraint=eastwest;dropTarget=0;fontSize=12;strokeColor=#BD7000;fontColor=#ffffff;" parent="jF-yR4b1AywF_RMoqf4l-206" vertex="1">
          <mxGeometry y="160" width="350" height="26" as="geometry"/>
        </mxCell>
        <mxCell id="jF-yR4b1AywF_RMoqf4l-222" value="FK" style="shape=partialRectangle;top=0;left=0;bottom=0;fillColor=none;align=left;verticalAlign=top;spacingLeft=4;spacingRight=4;overflow=hidden;rotatable=0;points=[];portConstraint=eastwest;part=1;fontSize=12;" parent="jF-yR4b1AywF_RMoqf4l-221" vertex="1" connectable="0">
          <mxGeometry width="30" height="26" as="geometry"/>
        </mxCell>
        <mxCell id="jF-yR4b1AywF_RMoqf4l-223" style="edgeStyle=orthogonalEdgeStyle;rounded=0;orthogonalLoop=1;jettySize=auto;html=1;entryX=1;entryY=0.5;entryDx=0;entryDy=0;" parent="1" source="jF-yR4b1AywF_RMoqf4l-193" target="jF-yR4b1AywF_RMoqf4l-221" edge="1">
          <mxGeometry relative="1" as="geometry">
            <Array as="points">
              <mxPoint x="1340" y="911"/>
              <mxPoint x="1340" y="1253"/>
            </Array>
          </mxGeometry>
        </mxCell>
        <mxCell id="jF-yR4b1AywF_RMoqf4l-226" style="edgeStyle=orthogonalEdgeStyle;rounded=0;orthogonalLoop=1;jettySize=auto;html=1;entryX=0;entryY=0.5;entryDx=0;entryDy=0;" parent="1" source="jF-yR4b1AywF_RMoqf4l-181" target="jF-yR4b1AywF_RMoqf4l-224" edge="1">
          <mxGeometry relative="1" as="geometry"/>
        </mxCell>
        <mxCell id="55i-hiF77rFYcrtyMTfn-1" value="hy_member（会员）" style="swimlane;fontStyle=0;childLayout=stackLayout;horizontal=1;startSize=26;fillColor=#e0e0e0;horizontalStack=0;resizeParent=1;resizeParentMax=0;resizeLast=0;collapsible=1;marginBottom=0;swimlaneFillColor=#ffffff;align=center;fontSize=14;" vertex="1" parent="1">
          <mxGeometry x="100" y="1500" width="160" height="170" as="geometry"/>
        </mxCell>
        <mxCell id="55i-hiF77rFYcrtyMTfn-2" value="id" style="shape=partialRectangle;top=0;left=0;right=0;bottom=1;align=left;verticalAlign=middle;fillColor=#f0a30a;spacingLeft=34;spacingRight=4;overflow=hidden;rotatable=0;points=[[0,0.5],[1,0.5]];portConstraint=eastwest;dropTarget=0;fontStyle=5;fontSize=12;strokeColor=#BD7000;fontColor=#ffffff;" vertex="1" parent="55i-hiF77rFYcrtyMTfn-1">
          <mxGeometry y="26" width="160" height="30" as="geometry"/>
        </mxCell>
        <mxCell id="55i-hiF77rFYcrtyMTfn-3" value="PK" style="shape=partialRectangle;top=0;left=0;bottom=0;fillColor=none;align=left;verticalAlign=middle;spacingLeft=4;spacingRight=4;overflow=hidden;rotatable=0;points=[];portConstraint=eastwest;part=1;fontSize=12;" vertex="1" connectable="0" parent="55i-hiF77rFYcrtyMTfn-2">
          <mxGeometry width="30" height="30" as="geometry"/>
        </mxCell>
        <mxCell id="55i-hiF77rFYcrtyMTfn-4" value="account" style="shape=partialRectangle;top=0;left=0;right=0;bottom=0;align=left;verticalAlign=top;fillColor=none;spacingLeft=34;spacingRight=4;overflow=hidden;rotatable=0;points=[[0,0.5],[1,0.5]];portConstraint=eastwest;dropTarget=0;fontSize=12;" vertex="1" parent="55i-hiF77rFYcrtyMTfn-1">
          <mxGeometry y="56" width="160" height="26" as="geometry"/>
        </mxCell>
        <mxCell id="55i-hiF77rFYcrtyMTfn-5" value="" style="shape=partialRectangle;top=0;left=0;bottom=0;fillColor=none;align=left;verticalAlign=top;spacingLeft=4;spacingRight=4;overflow=hidden;rotatable=0;points=[];portConstraint=eastwest;part=1;fontSize=12;" vertex="1" connectable="0" parent="55i-hiF77rFYcrtyMTfn-4">
          <mxGeometry width="30" height="26" as="geometry"/>
        </mxCell>
        <mxCell id="55i-hiF77rFYcrtyMTfn-6" value="phone" style="shape=partialRectangle;top=0;left=0;right=0;bottom=0;align=left;verticalAlign=top;fillColor=none;spacingLeft=34;spacingRight=4;overflow=hidden;rotatable=0;points=[[0,0.5],[1,0.5]];portConstraint=eastwest;dropTarget=0;fontSize=12;" vertex="1" parent="55i-hiF77rFYcrtyMTfn-1">
          <mxGeometry y="82" width="160" height="26" as="geometry"/>
        </mxCell>
        <mxCell id="55i-hiF77rFYcrtyMTfn-7" value="" style="shape=partialRectangle;top=0;left=0;bottom=0;fillColor=none;align=left;verticalAlign=top;spacingLeft=4;spacingRight=4;overflow=hidden;rotatable=0;points=[];portConstraint=eastwest;part=1;fontSize=12;" vertex="1" connectable="0" parent="55i-hiF77rFYcrtyMTfn-6">
          <mxGeometry width="30" height="26" as="geometry"/>
        </mxCell>
        <mxCell id="55i-hiF77rFYcrtyMTfn-8" value="real_name" style="shape=partialRectangle;top=0;left=0;right=0;bottom=0;align=left;verticalAlign=top;fillColor=none;spacingLeft=34;spacingRight=4;overflow=hidden;rotatable=0;points=[[0,0.5],[1,0.5]];portConstraint=eastwest;dropTarget=0;fontSize=12;" vertex="1" parent="55i-hiF77rFYcrtyMTfn-1">
          <mxGeometry y="108" width="160" height="26" as="geometry"/>
        </mxCell>
        <mxCell id="55i-hiF77rFYcrtyMTfn-9" value="" style="shape=partialRectangle;top=0;left=0;bottom=0;fillColor=none;align=left;verticalAlign=top;spacingLeft=4;spacingRight=4;overflow=hidden;rotatable=0;points=[];portConstraint=eastwest;part=1;fontSize=12;" vertex="1" connectable="0" parent="55i-hiF77rFYcrtyMTfn-8">
          <mxGeometry width="30" height="26" as="geometry"/>
        </mxCell>
        <mxCell id="55i-hiF77rFYcrtyMTfn-46" value="user_type" style="shape=partialRectangle;top=0;left=0;right=0;bottom=0;align=left;verticalAlign=top;fillColor=none;spacingLeft=34;spacingRight=4;overflow=hidden;rotatable=0;points=[[0,0.5],[1,0.5]];portConstraint=eastwest;dropTarget=0;fontSize=12;" vertex="1" parent="55i-hiF77rFYcrtyMTfn-1">
          <mxGeometry y="134" width="160" height="26" as="geometry"/>
        </mxCell>
        <mxCell id="55i-hiF77rFYcrtyMTfn-47" value="" style="shape=partialRectangle;top=0;left=0;bottom=0;fillColor=none;align=left;verticalAlign=top;spacingLeft=4;spacingRight=4;overflow=hidden;rotatable=0;points=[];portConstraint=eastwest;part=1;fontSize=12;" vertex="1" connectable="0" parent="55i-hiF77rFYcrtyMTfn-46">
          <mxGeometry width="30" height="26" as="geometry"/>
        </mxCell>
        <mxCell id="55i-hiF77rFYcrtyMTfn-10" value="" style="shape=partialRectangle;top=0;left=0;right=0;bottom=0;align=left;verticalAlign=top;fillColor=none;spacingLeft=34;spacingRight=4;overflow=hidden;rotatable=0;points=[[0,0.5],[1,0.5]];portConstraint=eastwest;dropTarget=0;fontSize=12;" vertex="1" parent="55i-hiF77rFYcrtyMTfn-1">
          <mxGeometry y="160" width="160" height="10" as="geometry"/>
        </mxCell>
        <mxCell id="55i-hiF77rFYcrtyMTfn-11" value="" style="shape=partialRectangle;top=0;left=0;bottom=0;fillColor=none;align=left;verticalAlign=top;spacingLeft=4;spacingRight=4;overflow=hidden;rotatable=0;points=[];portConstraint=eastwest;part=1;fontSize=12;" vertex="1" connectable="0" parent="55i-hiF77rFYcrtyMTfn-10">
          <mxGeometry width="30" height="10" as="geometry"/>
        </mxCell>
        <mxCell id="55i-hiF77rFYcrtyMTfn-12" value="hy_student（学生）" style="swimlane;fontStyle=0;childLayout=stackLayout;horizontal=1;startSize=26;fillColor=#e0e0e0;horizontalStack=0;resizeParent=1;resizeParentMax=0;resizeLast=0;collapsible=1;marginBottom=0;swimlaneFillColor=#ffffff;align=center;fontSize=14;" vertex="1" parent="1">
          <mxGeometry x="340" y="1390" width="160" height="82" as="geometry"/>
        </mxCell>
        <mxCell id="55i-hiF77rFYcrtyMTfn-13" value="id" style="shape=partialRectangle;top=0;left=0;right=0;bottom=1;align=left;verticalAlign=middle;fillColor=none;spacingLeft=34;spacingRight=4;overflow=hidden;rotatable=0;points=[[0,0.5],[1,0.5]];portConstraint=eastwest;dropTarget=0;fontStyle=5;fontSize=12;" vertex="1" parent="55i-hiF77rFYcrtyMTfn-12">
          <mxGeometry y="26" width="160" height="30" as="geometry"/>
        </mxCell>
        <mxCell id="55i-hiF77rFYcrtyMTfn-14" value="PK" style="shape=partialRectangle;top=0;left=0;bottom=0;fillColor=none;align=left;verticalAlign=middle;spacingLeft=4;spacingRight=4;overflow=hidden;rotatable=0;points=[];portConstraint=eastwest;part=1;fontSize=12;" vertex="1" connectable="0" parent="55i-hiF77rFYcrtyMTfn-13">
          <mxGeometry width="30" height="30" as="geometry"/>
        </mxCell>
        <mxCell id="55i-hiF77rFYcrtyMTfn-15" value="user_id" style="shape=partialRectangle;top=0;left=0;right=0;bottom=0;align=left;verticalAlign=top;fillColor=#f0a30a;spacingLeft=34;spacingRight=4;overflow=hidden;rotatable=0;points=[[0,0.5],[1,0.5]];portConstraint=eastwest;dropTarget=0;fontSize=12;strokeColor=#BD7000;fontColor=#ffffff;" vertex="1" parent="55i-hiF77rFYcrtyMTfn-12">
          <mxGeometry y="56" width="160" height="26" as="geometry"/>
        </mxCell>
        <mxCell id="55i-hiF77rFYcrtyMTfn-16" value="FK" style="shape=partialRectangle;top=0;left=0;bottom=0;fillColor=none;align=left;verticalAlign=top;spacingLeft=4;spacingRight=4;overflow=hidden;rotatable=0;points=[];portConstraint=eastwest;part=1;fontSize=12;" vertex="1" connectable="0" parent="55i-hiF77rFYcrtyMTfn-15">
          <mxGeometry width="30" height="26" as="geometry"/>
        </mxCell>
        <mxCell id="55i-hiF77rFYcrtyMTfn-23" value="hy_tenant_user（机构教师）" style="swimlane;fontStyle=0;childLayout=stackLayout;horizontal=1;startSize=26;fillColor=#e0e0e0;horizontalStack=0;resizeParent=1;resizeParentMax=0;resizeLast=0;collapsible=1;marginBottom=0;swimlaneFillColor=#ffffff;align=center;fontSize=14;" vertex="1" parent="1">
          <mxGeometry x="340" y="1680" width="190" height="108" as="geometry"/>
        </mxCell>
        <mxCell id="55i-hiF77rFYcrtyMTfn-24" value="id" style="shape=partialRectangle;top=0;left=0;right=0;bottom=1;align=left;verticalAlign=middle;fillColor=none;spacingLeft=34;spacingRight=4;overflow=hidden;rotatable=0;points=[[0,0.5],[1,0.5]];portConstraint=eastwest;dropTarget=0;fontStyle=5;fontSize=12;" vertex="1" parent="55i-hiF77rFYcrtyMTfn-23">
          <mxGeometry y="26" width="190" height="30" as="geometry"/>
        </mxCell>
        <mxCell id="55i-hiF77rFYcrtyMTfn-25" value="PK" style="shape=partialRectangle;top=0;left=0;bottom=0;fillColor=none;align=left;verticalAlign=middle;spacingLeft=4;spacingRight=4;overflow=hidden;rotatable=0;points=[];portConstraint=eastwest;part=1;fontSize=12;" vertex="1" connectable="0" parent="55i-hiF77rFYcrtyMTfn-24">
          <mxGeometry width="30" height="30" as="geometry"/>
        </mxCell>
        <mxCell id="55i-hiF77rFYcrtyMTfn-26" value="tenant_id" style="shape=partialRectangle;top=0;left=0;right=0;bottom=0;align=left;verticalAlign=top;fillColor=#60a917;spacingLeft=34;spacingRight=4;overflow=hidden;rotatable=0;points=[[0,0.5],[1,0.5]];portConstraint=eastwest;dropTarget=0;fontSize=12;strokeColor=#2D7600;fontColor=#ffffff;" vertex="1" parent="55i-hiF77rFYcrtyMTfn-23">
          <mxGeometry y="56" width="190" height="26" as="geometry"/>
        </mxCell>
        <mxCell id="55i-hiF77rFYcrtyMTfn-27" value="FK" style="shape=partialRectangle;top=0;left=0;bottom=0;fillColor=none;align=left;verticalAlign=top;spacingLeft=4;spacingRight=4;overflow=hidden;rotatable=0;points=[];portConstraint=eastwest;part=1;fontSize=12;" vertex="1" connectable="0" parent="55i-hiF77rFYcrtyMTfn-26">
          <mxGeometry width="30" height="26" as="geometry"/>
        </mxCell>
        <mxCell id="55i-hiF77rFYcrtyMTfn-28" value="user_id" style="shape=partialRectangle;top=0;left=0;right=0;bottom=0;align=left;verticalAlign=top;fillColor=#f0a30a;spacingLeft=34;spacingRight=4;overflow=hidden;rotatable=0;points=[[0,0.5],[1,0.5]];portConstraint=eastwest;dropTarget=0;fontSize=12;strokeColor=#BD7000;fontColor=#ffffff;" vertex="1" parent="55i-hiF77rFYcrtyMTfn-23">
          <mxGeometry y="82" width="190" height="26" as="geometry"/>
        </mxCell>
        <mxCell id="55i-hiF77rFYcrtyMTfn-29" value="FK" style="shape=partialRectangle;top=0;left=0;bottom=0;fillColor=none;align=left;verticalAlign=top;spacingLeft=4;spacingRight=4;overflow=hidden;rotatable=0;points=[];portConstraint=eastwest;part=1;fontSize=12;" vertex="1" connectable="0" parent="55i-hiF77rFYcrtyMTfn-28">
          <mxGeometry width="30" height="26" as="geometry"/>
        </mxCell>
        <mxCell id="55i-hiF77rFYcrtyMTfn-33" style="edgeStyle=orthogonalEdgeStyle;rounded=0;orthogonalLoop=1;jettySize=auto;html=1;entryX=0;entryY=0.5;entryDx=0;entryDy=0;" edge="1" parent="1" source="55i-hiF77rFYcrtyMTfn-2" target="55i-hiF77rFYcrtyMTfn-15">
          <mxGeometry relative="1" as="geometry"/>
        </mxCell>
        <mxCell id="55i-hiF77rFYcrtyMTfn-34" style="edgeStyle=orthogonalEdgeStyle;rounded=0;orthogonalLoop=1;jettySize=auto;html=1;entryX=0;entryY=0.5;entryDx=0;entryDy=0;" edge="1" parent="1" source="55i-hiF77rFYcrtyMTfn-2" target="55i-hiF77rFYcrtyMTfn-28">
          <mxGeometry relative="1" as="geometry"/>
        </mxCell>
        <mxCell id="55i-hiF77rFYcrtyMTfn-35" value="hy_student_parent（家长与学生关系）" style="swimlane;fontStyle=0;childLayout=stackLayout;horizontal=1;startSize=26;fillColor=#e0e0e0;horizontalStack=0;resizeParent=1;resizeParentMax=0;resizeLast=0;collapsible=1;marginBottom=0;swimlaneFillColor=#ffffff;align=center;fontSize=14;" vertex="1" parent="1">
          <mxGeometry x="340" y="1510" width="250" height="118" as="geometry"/>
        </mxCell>
        <mxCell id="55i-hiF77rFYcrtyMTfn-36" value="id" style="shape=partialRectangle;top=0;left=0;right=0;bottom=1;align=left;verticalAlign=middle;fillColor=none;spacingLeft=34;spacingRight=4;overflow=hidden;rotatable=0;points=[[0,0.5],[1,0.5]];portConstraint=eastwest;dropTarget=0;fontStyle=5;fontSize=12;" vertex="1" parent="55i-hiF77rFYcrtyMTfn-35">
          <mxGeometry y="26" width="250" height="30" as="geometry"/>
        </mxCell>
        <mxCell id="55i-hiF77rFYcrtyMTfn-37" value="PK" style="shape=partialRectangle;top=0;left=0;bottom=0;fillColor=none;align=left;verticalAlign=middle;spacingLeft=4;spacingRight=4;overflow=hidden;rotatable=0;points=[];portConstraint=eastwest;part=1;fontSize=12;" vertex="1" connectable="0" parent="55i-hiF77rFYcrtyMTfn-36">
          <mxGeometry width="30" height="30" as="geometry"/>
        </mxCell>
        <mxCell id="55i-hiF77rFYcrtyMTfn-50" value="student_id" style="shape=partialRectangle;top=0;left=0;right=0;bottom=0;align=left;verticalAlign=top;fillColor=#f0a30a;spacingLeft=34;spacingRight=4;overflow=hidden;rotatable=0;points=[[0,0.5],[1,0.5]];portConstraint=eastwest;dropTarget=0;fontSize=12;strokeColor=#BD7000;fontColor=#ffffff;" vertex="1" parent="55i-hiF77rFYcrtyMTfn-35">
          <mxGeometry y="56" width="250" height="26" as="geometry"/>
        </mxCell>
        <mxCell id="55i-hiF77rFYcrtyMTfn-51" value="FK" style="shape=partialRectangle;top=0;left=0;bottom=0;fillColor=none;align=left;verticalAlign=top;spacingLeft=4;spacingRight=4;overflow=hidden;rotatable=0;points=[];portConstraint=eastwest;part=1;fontSize=12;" vertex="1" connectable="0" parent="55i-hiF77rFYcrtyMTfn-50">
          <mxGeometry width="30" height="26" as="geometry"/>
        </mxCell>
        <mxCell id="55i-hiF77rFYcrtyMTfn-42" value="parent_id" style="shape=partialRectangle;top=0;left=0;right=0;bottom=0;align=left;verticalAlign=top;fillColor=#f0a30a;spacingLeft=34;spacingRight=4;overflow=hidden;rotatable=0;points=[[0,0.5],[1,0.5]];portConstraint=eastwest;dropTarget=0;fontSize=12;strokeColor=#BD7000;fontColor=#ffffff;" vertex="1" parent="55i-hiF77rFYcrtyMTfn-35">
          <mxGeometry y="82" width="250" height="26" as="geometry"/>
        </mxCell>
        <mxCell id="55i-hiF77rFYcrtyMTfn-43" value="FK" style="shape=partialRectangle;top=0;left=0;bottom=0;fillColor=none;align=left;verticalAlign=top;spacingLeft=4;spacingRight=4;overflow=hidden;rotatable=0;points=[];portConstraint=eastwest;part=1;fontSize=12;" vertex="1" connectable="0" parent="55i-hiF77rFYcrtyMTfn-42">
          <mxGeometry width="30" height="26" as="geometry"/>
        </mxCell>
        <mxCell id="55i-hiF77rFYcrtyMTfn-44" value="" style="shape=partialRectangle;top=0;left=0;right=0;bottom=0;align=left;verticalAlign=top;fillColor=none;spacingLeft=34;spacingRight=4;overflow=hidden;rotatable=0;points=[[0,0.5],[1,0.5]];portConstraint=eastwest;dropTarget=0;fontSize=12;" vertex="1" parent="55i-hiF77rFYcrtyMTfn-35">
          <mxGeometry y="108" width="250" height="10" as="geometry"/>
        </mxCell>
        <mxCell id="55i-hiF77rFYcrtyMTfn-45" value="" style="shape=partialRectangle;top=0;left=0;bottom=0;fillColor=none;align=left;verticalAlign=top;spacingLeft=4;spacingRight=4;overflow=hidden;rotatable=0;points=[];portConstraint=eastwest;part=1;fontSize=12;" vertex="1" connectable="0" parent="55i-hiF77rFYcrtyMTfn-44">
          <mxGeometry width="30" height="10" as="geometry"/>
        </mxCell>
        <mxCell id="55i-hiF77rFYcrtyMTfn-52" style="edgeStyle=orthogonalEdgeStyle;rounded=0;orthogonalLoop=1;jettySize=auto;html=1;entryX=0;entryY=0.5;entryDx=0;entryDy=0;" edge="1" parent="1" source="55i-hiF77rFYcrtyMTfn-2" target="55i-hiF77rFYcrtyMTfn-42">
          <mxGeometry relative="1" as="geometry">
            <mxPoint x="340" y="1700" as="targetPoint"/>
            <Array as="points">
              <mxPoint x="300" y="1541"/>
              <mxPoint x="300" y="1605"/>
            </Array>
          </mxGeometry>
        </mxCell>
        <mxCell id="55i-hiF77rFYcrtyMTfn-53" style="edgeStyle=orthogonalEdgeStyle;rounded=0;orthogonalLoop=1;jettySize=auto;html=1;entryX=1;entryY=0.5;entryDx=0;entryDy=0;" edge="1" parent="1" source="55i-hiF77rFYcrtyMTfn-15" target="55i-hiF77rFYcrtyMTfn-50">
          <mxGeometry relative="1" as="geometry"/>
        </mxCell>
        <mxCell id="55i-hiF77rFYcrtyMTfn-54" value="cls_clazz_student（班级学生）" style="swimlane;fontStyle=0;childLayout=stackLayout;horizontal=1;startSize=29;fillColor=#e0e0e0;horizontalStack=0;resizeParent=1;resizeParentMax=0;resizeLast=0;collapsible=1;marginBottom=0;swimlaneFillColor=#ffffff;align=center;fontSize=14;" vertex="1" parent="1">
          <mxGeometry x="690" y="1390" width="210" height="137" as="geometry"/>
        </mxCell>
        <mxCell id="55i-hiF77rFYcrtyMTfn-55" value="id" style="shape=partialRectangle;top=0;left=0;right=0;bottom=1;align=left;verticalAlign=middle;fillColor=none;spacingLeft=34;spacingRight=4;overflow=hidden;rotatable=0;points=[[0,0.5],[1,0.5]];portConstraint=eastwest;dropTarget=0;fontStyle=5;fontSize=12;" vertex="1" parent="55i-hiF77rFYcrtyMTfn-54">
          <mxGeometry y="29" width="210" height="30" as="geometry"/>
        </mxCell>
        <mxCell id="55i-hiF77rFYcrtyMTfn-56" value="PK" style="shape=partialRectangle;top=0;left=0;bottom=0;fillColor=none;align=left;verticalAlign=middle;spacingLeft=4;spacingRight=4;overflow=hidden;rotatable=0;points=[];portConstraint=eastwest;part=1;fontSize=12;" vertex="1" connectable="0" parent="55i-hiF77rFYcrtyMTfn-55">
          <mxGeometry width="30" height="30" as="geometry"/>
        </mxCell>
        <mxCell id="55i-hiF77rFYcrtyMTfn-57" value="tenant_id" style="shape=partialRectangle;top=0;left=0;right=0;bottom=0;align=left;verticalAlign=top;fillColor=#60a917;spacingLeft=34;spacingRight=4;overflow=hidden;rotatable=0;points=[[0,0.5],[1,0.5]];portConstraint=eastwest;dropTarget=0;fontSize=12;strokeColor=#2D7600;fontColor=#ffffff;" vertex="1" parent="55i-hiF77rFYcrtyMTfn-54">
          <mxGeometry y="59" width="210" height="26" as="geometry"/>
        </mxCell>
        <mxCell id="55i-hiF77rFYcrtyMTfn-58" value="FK" style="shape=partialRectangle;top=0;left=0;bottom=0;fillColor=none;align=left;verticalAlign=top;spacingLeft=4;spacingRight=4;overflow=hidden;rotatable=0;points=[];portConstraint=eastwest;part=1;fontSize=12;" vertex="1" connectable="0" parent="55i-hiF77rFYcrtyMTfn-57">
          <mxGeometry width="30" height="26" as="geometry"/>
        </mxCell>
        <mxCell id="55i-hiF77rFYcrtyMTfn-59" value="student_id" style="shape=partialRectangle;top=0;left=0;right=0;bottom=0;align=left;verticalAlign=top;fillColor=#f0a30a;spacingLeft=34;spacingRight=4;overflow=hidden;rotatable=0;points=[[0,0.5],[1,0.5]];portConstraint=eastwest;dropTarget=0;fontSize=12;strokeColor=#BD7000;fontColor=#ffffff;" vertex="1" parent="55i-hiF77rFYcrtyMTfn-54">
          <mxGeometry y="85" width="210" height="26" as="geometry"/>
        </mxCell>
        <mxCell id="55i-hiF77rFYcrtyMTfn-60" value="FK" style="shape=partialRectangle;top=0;left=0;bottom=0;fillColor=none;align=left;verticalAlign=top;spacingLeft=4;spacingRight=4;overflow=hidden;rotatable=0;points=[];portConstraint=eastwest;part=1;fontSize=12;" vertex="1" connectable="0" parent="55i-hiF77rFYcrtyMTfn-59">
          <mxGeometry width="30" height="26" as="geometry"/>
        </mxCell>
        <mxCell id="55i-hiF77rFYcrtyMTfn-61" value="clazz_id" style="shape=partialRectangle;top=0;left=0;right=0;bottom=0;align=left;verticalAlign=top;fillColor=#f8cecc;spacingLeft=34;spacingRight=4;overflow=hidden;rotatable=0;points=[[0,0.5],[1,0.5]];portConstraint=eastwest;dropTarget=0;fontSize=12;strokeColor=#b85450;" vertex="1" parent="55i-hiF77rFYcrtyMTfn-54">
          <mxGeometry y="111" width="210" height="26" as="geometry"/>
        </mxCell>
        <mxCell id="55i-hiF77rFYcrtyMTfn-62" value="FK" style="shape=partialRectangle;top=0;left=0;bottom=0;fillColor=none;align=left;verticalAlign=top;spacingLeft=4;spacingRight=4;overflow=hidden;rotatable=0;points=[];portConstraint=eastwest;part=1;fontSize=12;" vertex="1" connectable="0" parent="55i-hiF77rFYcrtyMTfn-61">
          <mxGeometry width="30" height="26" as="geometry"/>
        </mxCell>
        <mxCell id="55i-hiF77rFYcrtyMTfn-63" value="cls_clazz_teacher（班级教师）" style="swimlane;fontStyle=0;childLayout=stackLayout;horizontal=1;startSize=26;fillColor=#e0e0e0;horizontalStack=0;resizeParent=1;resizeParentMax=0;resizeLast=0;collapsible=1;marginBottom=0;swimlaneFillColor=#ffffff;align=center;fontSize=14;" vertex="1" parent="1">
          <mxGeometry x="690" y="1570" width="220" height="134" as="geometry"/>
        </mxCell>
        <mxCell id="55i-hiF77rFYcrtyMTfn-64" value="id" style="shape=partialRectangle;top=0;left=0;right=0;bottom=1;align=left;verticalAlign=middle;fillColor=none;spacingLeft=34;spacingRight=4;overflow=hidden;rotatable=0;points=[[0,0.5],[1,0.5]];portConstraint=eastwest;dropTarget=0;fontStyle=5;fontSize=12;" vertex="1" parent="55i-hiF77rFYcrtyMTfn-63">
          <mxGeometry y="26" width="220" height="30" as="geometry"/>
        </mxCell>
        <mxCell id="55i-hiF77rFYcrtyMTfn-65" value="PK" style="shape=partialRectangle;top=0;left=0;bottom=0;fillColor=none;align=left;verticalAlign=middle;spacingLeft=4;spacingRight=4;overflow=hidden;rotatable=0;points=[];portConstraint=eastwest;part=1;fontSize=12;" vertex="1" connectable="0" parent="55i-hiF77rFYcrtyMTfn-64">
          <mxGeometry width="30" height="30" as="geometry"/>
        </mxCell>
        <mxCell id="55i-hiF77rFYcrtyMTfn-66" value="tenant_id" style="shape=partialRectangle;top=0;left=0;right=0;bottom=0;align=left;verticalAlign=top;fillColor=#60a917;spacingLeft=34;spacingRight=4;overflow=hidden;rotatable=0;points=[[0,0.5],[1,0.5]];portConstraint=eastwest;dropTarget=0;fontSize=12;strokeColor=#2D7600;fontColor=#ffffff;" vertex="1" parent="55i-hiF77rFYcrtyMTfn-63">
          <mxGeometry y="56" width="220" height="26" as="geometry"/>
        </mxCell>
        <mxCell id="55i-hiF77rFYcrtyMTfn-67" value="FK" style="shape=partialRectangle;top=0;left=0;bottom=0;fillColor=none;align=left;verticalAlign=top;spacingLeft=4;spacingRight=4;overflow=hidden;rotatable=0;points=[];portConstraint=eastwest;part=1;fontSize=12;" vertex="1" connectable="0" parent="55i-hiF77rFYcrtyMTfn-66">
          <mxGeometry width="30" height="26" as="geometry"/>
        </mxCell>
        <mxCell id="55i-hiF77rFYcrtyMTfn-68" value="clazz_id" style="shape=partialRectangle;top=0;left=0;right=0;bottom=0;align=left;verticalAlign=top;fillColor=#f8cecc;spacingLeft=34;spacingRight=4;overflow=hidden;rotatable=0;points=[[0,0.5],[1,0.5]];portConstraint=eastwest;dropTarget=0;fontSize=12;strokeColor=#b85450;" vertex="1" parent="55i-hiF77rFYcrtyMTfn-63">
          <mxGeometry y="82" width="220" height="26" as="geometry"/>
        </mxCell>
        <mxCell id="55i-hiF77rFYcrtyMTfn-69" value="FK" style="shape=partialRectangle;top=0;left=0;bottom=0;fillColor=none;align=left;verticalAlign=top;spacingLeft=4;spacingRight=4;overflow=hidden;rotatable=0;points=[];portConstraint=eastwest;part=1;fontSize=12;" vertex="1" connectable="0" parent="55i-hiF77rFYcrtyMTfn-68">
          <mxGeometry width="30" height="26" as="geometry"/>
        </mxCell>
        <mxCell id="55i-hiF77rFYcrtyMTfn-70" value="teacher_id" style="shape=partialRectangle;top=0;left=0;right=0;bottom=0;align=left;verticalAlign=top;fillColor=#f0a30a;spacingLeft=34;spacingRight=4;overflow=hidden;rotatable=0;points=[[0,0.5],[1,0.5]];portConstraint=eastwest;dropTarget=0;fontSize=12;strokeColor=#BD7000;fontColor=#ffffff;" vertex="1" parent="55i-hiF77rFYcrtyMTfn-63">
          <mxGeometry y="108" width="220" height="26" as="geometry"/>
        </mxCell>
        <mxCell id="55i-hiF77rFYcrtyMTfn-71" value="FK" style="shape=partialRectangle;top=0;left=0;bottom=0;fillColor=none;align=left;verticalAlign=top;spacingLeft=4;spacingRight=4;overflow=hidden;rotatable=0;points=[];portConstraint=eastwest;part=1;fontSize=12;" vertex="1" connectable="0" parent="55i-hiF77rFYcrtyMTfn-70">
          <mxGeometry width="30" height="26" as="geometry"/>
        </mxCell>
        <mxCell id="55i-hiF77rFYcrtyMTfn-72" style="edgeStyle=orthogonalEdgeStyle;rounded=0;orthogonalLoop=1;jettySize=auto;html=1;entryX=0;entryY=0.5;entryDx=0;entryDy=0;" edge="1" parent="1" source="55i-hiF77rFYcrtyMTfn-28" target="55i-hiF77rFYcrtyMTfn-70">
          <mxGeometry relative="1" as="geometry"/>
        </mxCell>
        <mxCell id="55i-hiF77rFYcrtyMTfn-73" style="edgeStyle=orthogonalEdgeStyle;rounded=0;orthogonalLoop=1;jettySize=auto;html=1;entryX=0;entryY=0.5;entryDx=0;entryDy=0;" edge="1" parent="1" source="55i-hiF77rFYcrtyMTfn-15" target="55i-hiF77rFYcrtyMTfn-59">
          <mxGeometry relative="1" as="geometry">
            <Array as="points">
              <mxPoint x="610" y="1460"/>
              <mxPoint x="610" y="1488"/>
            </Array>
          </mxGeometry>
        </mxCell>
      </root>
    </mxGraphModel>
  </diagram>
</mxfile>
